solid OpenSCAD_Model
  facet normal -0.987685 0.156455 0
    outer loop
      vertex -18 0 0
      vertex -17.7063 1.8541 3
      vertex -17.7063 1.8541 0
    endloop
  endfacet
  facet normal -0.987685 0.156455 0
    outer loop
      vertex -17.7063 1.8541 3
      vertex -18 0 0
      vertex -18 0 3
    endloop
  endfacet
  facet normal -0.156434 -0.987688 0
    outer loop
      vertex -13.8541 -5.70634 0
      vertex -12 -6 3
      vertex -13.8541 -5.70634 3
    endloop
  endfacet
  facet normal -0.156434 -0.987688 -0
    outer loop
      vertex -12 -6 3
      vertex -13.8541 -5.70634 0
      vertex -12 -6 0
    endloop
  endfacet
  facet normal -0.156434 0.987688 0
    outer loop
      vertex -12 6 0
      vertex -13.8541 5.70634 3
      vertex -12 6 3
    endloop
  endfacet
  facet normal -0.156434 0.987688 0
    outer loop
      vertex -13.8541 5.70634 3
      vertex -12 6 0
      vertex -13.8541 5.70634 0
    endloop
  endfacet
  facet normal -0.891015 0.453975 0
    outer loop
      vertex -17.7063 1.8541 0
      vertex -16.8541 3.52671 3
      vertex -16.8541 3.52671 0
    endloop
  endfacet
  facet normal -0.891015 0.453975 0
    outer loop
      vertex -16.8541 3.52671 3
      vertex -17.7063 1.8541 0
      vertex -17.7063 1.8541 3
    endloop
  endfacet
  facet normal -0.453994 0.891005 0
    outer loop
      vertex -13.8541 5.70634 0
      vertex -15.5267 4.8541 3
      vertex -13.8541 5.70634 3
    endloop
  endfacet
  facet normal -0.453994 0.891005 0
    outer loop
      vertex -15.5267 4.8541 3
      vertex -13.8541 5.70634 0
      vertex -15.5267 4.8541 0
    endloop
  endfacet
  facet normal -0.987685 -0.156455 0
    outer loop
      vertex -17.7063 -1.8541 0
      vertex -18 0 3
      vertex -18 0 0
    endloop
  endfacet
  facet normal -0.987685 -0.156455 0
    outer loop
      vertex -18 0 3
      vertex -17.7063 -1.8541 0
      vertex -17.7063 -1.8541 3
    endloop
  endfacet
  facet normal 0 0 -1
    outer loop
      vertex 78.6063 -1.8541 0
      vertex 78.6063 1.8541 0
      vertex 78.9 0 0
    endloop
  endfacet
  facet normal 0 0 -1
    outer loop
      vertex 77.7541 -3.52671 0
      vertex 78.6063 1.8541 0
      vertex 78.6063 -1.8541 0
    endloop
  endfacet
  facet normal 0 0 -1
    outer loop
      vertex 77.7541 -3.52671 0
      vertex 77.7541 3.52671 0
      vertex 78.6063 1.8541 0
    endloop
  endfacet
  facet normal 0 0 -1
    outer loop
      vertex 76.4267 -4.8541 0
      vertex 77.7541 3.52671 0
      vertex 77.7541 -3.52671 0
    endloop
  endfacet
  facet normal 0 0 -1
    outer loop
      vertex 76.4267 -4.8541 0
      vertex 76.4267 4.8541 0
      vertex 77.7541 3.52671 0
    endloop
  endfacet
  facet normal 0 0 -1
    outer loop
      vertex 74.7541 -5.70634 0
      vertex 76.4267 4.8541 0
      vertex 76.4267 -4.8541 0
    endloop
  endfacet
  facet normal 0 0 -1
    outer loop
      vertex 74.7541 -5.70634 0
      vertex 74.7541 5.70634 0
      vertex 76.4267 4.8541 0
    endloop
  endfacet
  facet normal 0 0 -1
    outer loop
      vertex 72.9 -6 0
      vertex 74.7541 5.70634 0
      vertex 74.7541 -5.70634 0
    endloop
  endfacet
  facet normal 0 0 -1
    outer loop
      vertex 72.9 -6 0
      vertex 72.9 6 0
      vertex 74.7541 5.70634 0
    endloop
  endfacet
  facet normal 0 0 -1
    outer loop
      vertex -12 -6 0
      vertex 72.9 6 0
      vertex 72.9 -6 0
    endloop
  endfacet
  facet normal 0 0 -1
    outer loop
      vertex -12 -6 0
      vertex -12 6 0
      vertex 72.9 6 0
    endloop
  endfacet
  facet normal 0 0 -1
    outer loop
      vertex -13.8541 -5.70634 0
      vertex -12 6 0
      vertex -12 -6 0
    endloop
  endfacet
  facet normal 0 0 -1
    outer loop
      vertex -13.8541 -5.70634 0
      vertex -13.8541 5.70634 0
      vertex -12 6 0
    endloop
  endfacet
  facet normal 0 0 -1
    outer loop
      vertex -15.5267 -4.8541 0
      vertex -13.8541 5.70634 0
      vertex -13.8541 -5.70634 0
    endloop
  endfacet
  facet normal 0 0 -1
    outer loop
      vertex -15.5267 -4.8541 0
      vertex -15.5267 4.8541 0
      vertex -13.8541 5.70634 0
    endloop
  endfacet
  facet normal 0 0 -1
    outer loop
      vertex -16.8541 -3.52671 0
      vertex -15.5267 4.8541 0
      vertex -15.5267 -4.8541 0
    endloop
  endfacet
  facet normal 0 0 -1
    outer loop
      vertex -16.8541 -3.52671 0
      vertex -16.8541 3.52671 0
      vertex -15.5267 4.8541 0
    endloop
  endfacet
  facet normal 0 0 -1
    outer loop
      vertex -17.7063 -1.8541 0
      vertex -16.8541 3.52671 0
      vertex -16.8541 -3.52671 0
    endloop
  endfacet
  facet normal 0 0 -1
    outer loop
      vertex -17.7063 -1.8541 0
      vertex -17.7063 1.8541 0
      vertex -16.8541 3.52671 0
    endloop
  endfacet
  facet normal 0 -0 -1
    outer loop
      vertex -17.7063 1.8541 0
      vertex -17.7063 -1.8541 0
      vertex -18 0 0
    endloop
  endfacet
  facet normal 0 0 1
    outer loop
      vertex 78.6063 1.8541 3
      vertex 78.6063 -1.8541 3
      vertex 78.9 0 3
    endloop
  endfacet
  facet normal 0 0 1
    outer loop
      vertex 77.7541 3.52671 3
      vertex 78.6063 -1.8541 3
      vertex 78.6063 1.8541 3
    endloop
  endfacet
  facet normal 0 0 1
    outer loop
      vertex 77.7541 3.52671 3
      vertex 77.7541 -3.52671 3
      vertex 78.6063 -1.8541 3
    endloop
  endfacet
  facet normal 0 0 1
    outer loop
      vertex 76.4267 4.8541 3
      vertex 77.7541 -3.52671 3
      vertex 77.7541 3.52671 3
    endloop
  endfacet
  facet normal 0 0 1
    outer loop
      vertex 76.4267 4.8541 3
      vertex 76.4267 -4.8541 3
      vertex 77.7541 -3.52671 3
    endloop
  endfacet
  facet normal 0 0 1
    outer loop
      vertex 74.7541 5.70634 3
      vertex 76.4267 -4.8541 3
      vertex 76.4267 4.8541 3
    endloop
  endfacet
  facet normal 0 0 1
    outer loop
      vertex 74.7541 5.70634 3
      vertex 74.7541 -5.70634 3
      vertex 76.4267 -4.8541 3
    endloop
  endfacet
  facet normal 0 0 1
    outer loop
      vertex 72.9 6 3
      vertex 74.7541 -5.70634 3
      vertex 74.7541 5.70634 3
    endloop
  endfacet
  facet normal 0 0 1
    outer loop
      vertex 72.9 6 3
      vertex 72.9 -6 3
      vertex 74.7541 -5.70634 3
    endloop
  endfacet
  facet normal 0 0 1
    outer loop
      vertex 72.9 6 3
      vertex 62.2 0 3
      vertex 72.9 -6 3
    endloop
  endfacet
  facet normal 0 0 1
    outer loop
      vertex 72.9 6 3
      vertex 62.0923 0.679837 3
      vertex 62.2 0 3
    endloop
  endfacet
  facet normal 0 0 1
    outer loop
      vertex 72.9 6 3
      vertex 61.7798 1.29313 3
      vertex 62.0923 0.679837 3
    endloop
  endfacet
  facet normal 0 0 1
    outer loop
      vertex 72.9 6 3
      vertex 61.2931 1.77984 3
      vertex 61.7798 1.29313 3
    endloop
  endfacet
  facet normal 0 0 1
    outer loop
      vertex 72.9 6 3
      vertex 60.6798 2.09232 3
      vertex 61.2931 1.77984 3
    endloop
  endfacet
  facet normal 0 0 1
    outer loop
      vertex 72.9 6 3
      vertex 60 2.2 3
      vertex 60.6798 2.09232 3
    endloop
  endfacet
  facet normal 0 0 1
    outer loop
      vertex 48 2.175 3
      vertex 60 2.2 3
      vertex 72.9 6 3
    endloop
  endfacet
  facet normal 0 0 1
    outer loop
      vertex 57.9077 0.679837 3
      vertex 50.175 0 3
      vertex 57.8 0 3
    endloop
  endfacet
  facet normal 0 0 1
    outer loop
      vertex 50.0685 0.672112 3
      vertex 57.9077 0.679837 3
      vertex 58.2202 1.29313 3
    endloop
  endfacet
  facet normal 0 0 1
    outer loop
      vertex 49.7596 1.27843 3
      vertex 58.2202 1.29313 3
      vertex 58.7069 1.77984 3
    endloop
  endfacet
  facet normal 0 0 1
    outer loop
      vertex 49.2784 1.75961 3
      vertex 58.7069 1.77984 3
      vertex 59.3202 2.09232 3
    endloop
  endfacet
  facet normal 0 0 1
    outer loop
      vertex 60 2.2 3
      vertex 48 2.175 3
      vertex 59.3202 2.09232 3
    endloop
  endfacet
  facet normal 0 0 1
    outer loop
      vertex 57.9077 0.679837 3
      vertex 50.0685 0.672112 3
      vertex 50.175 0 3
    endloop
  endfacet
  facet normal 0 0 1
    outer loop
      vertex 58.2202 1.29313 3
      vertex 49.7596 1.27843 3
      vertex 50.0685 0.672112 3
    endloop
  endfacet
  facet normal 0 0 1
    outer loop
      vertex 58.7069 1.77984 3
      vertex 49.2784 1.75961 3
      vertex 49.7596 1.27843 3
    endloop
  endfacet
  facet normal 0 0 1
    outer loop
      vertex 59.3202 2.09232 3
      vertex 48.6721 2.06855 3
      vertex 49.2784 1.75961 3
    endloop
  endfacet
  facet normal 0 0 1
    outer loop
      vertex 59.3202 2.09232 3
      vertex 48 2.175 3
      vertex 48.6721 2.06855 3
    endloop
  endfacet
  facet normal 0 0 1
    outer loop
      vertex 45.9314 0.672112 3
      vertex 38.15 0 3
      vertex 45.825 0 3
    endloop
  endfacet
  facet normal 0 0 1
    outer loop
      vertex 38.0448 0.664386 3
      vertex 45.9314 0.672112 3
      vertex 46.2404 1.27843 3
    endloop
  endfacet
  facet normal 0 0 1
    outer loop
      vertex 37.7394 1.26374 3
      vertex 46.2404 1.27843 3
      vertex 46.7216 1.75961 3
    endloop
  endfacet
  facet normal 0 0 1
    outer loop
      vertex 37.2637 1.73939 3
      vertex 46.7216 1.75961 3
      vertex 47.3279 2.06855 3
    endloop
  endfacet
  facet normal 0 0 1
    outer loop
      vertex 45.9314 0.672112 3
      vertex 38.0448 0.664386 3
      vertex 38.15 0 3
    endloop
  endfacet
  facet normal 0 0 1
    outer loop
      vertex 36.6644 2.04477 3
      vertex 47.3279 2.06855 3
      vertex 48 2.175 3
    endloop
  endfacet
  facet normal 0 0 1
    outer loop
      vertex 36 2.15 3
      vertex 48 2.175 3
      vertex 72.9 6 3
    endloop
  endfacet
  facet normal 0 0 1
    outer loop
      vertex 46.2404 1.27843 3
      vertex 37.7394 1.26374 3
      vertex 38.0448 0.664386 3
    endloop
  endfacet
  facet normal 0 0 1
    outer loop
      vertex 46.7216 1.75961 3
      vertex 37.2637 1.73939 3
      vertex 37.7394 1.26374 3
    endloop
  endfacet
  facet normal 0 0 1
    outer loop
      vertex 47.3279 2.06855 3
      vertex 36.6644 2.04477 3
      vertex 37.2637 1.73939 3
    endloop
  endfacet
  facet normal 0 0 1
    outer loop
      vertex 48 2.175 3
      vertex 36 2.15 3
      vertex 36.6644 2.04477 3
    endloop
  endfacet
  facet normal 0 0 1
    outer loop
      vertex 33.9552 0.664386 3
      vertex 26.125 0 3
      vertex 33.85 0 3
    endloop
  endfacet
  facet normal 0 0 1
    outer loop
      vertex 26.021 0.656661 3
      vertex 33.9552 0.664386 3
      vertex 34.2606 1.26374 3
    endloop
  endfacet
  facet normal 0 0 1
    outer loop
      vertex 25.7192 1.24904 3
      vertex 34.2606 1.26374 3
      vertex 34.7363 1.73939 3
    endloop
  endfacet
  facet normal 0 0 1
    outer loop
      vertex 25.249 1.71916 3
      vertex 34.7363 1.73939 3
      vertex 35.3356 2.04477 3
    endloop
  endfacet
  facet normal 0 0 1
    outer loop
      vertex 33.9552 0.664386 3
      vertex 26.021 0.656661 3
      vertex 26.125 0 3
    endloop
  endfacet
  facet normal 0 0 1
    outer loop
      vertex 24.6567 2.02099 3
      vertex 35.3356 2.04477 3
      vertex 36 2.15 3
    endloop
  endfacet
  facet normal 0 0 1
    outer loop
      vertex 34.2606 1.26374 3
      vertex 25.7192 1.24904 3
      vertex 26.021 0.656661 3
    endloop
  endfacet
  facet normal 0 0 1
    outer loop
      vertex 24 2.125 3
      vertex 36 2.15 3
      vertex 72.9 6 3
    endloop
  endfacet
  facet normal 0 0 1
    outer loop
      vertex 34.7363 1.73939 3
      vertex 25.249 1.71916 3
      vertex 25.7192 1.24904 3
    endloop
  endfacet
  facet normal 0 0 1
    outer loop
      vertex 35.3356 2.04477 3
      vertex 24.6567 2.02099 3
      vertex 25.249 1.71916 3
    endloop
  endfacet
  facet normal 0 0 1
    outer loop
      vertex 36 2.15 3
      vertex 24 2.125 3
      vertex 24.6567 2.02099 3
    endloop
  endfacet
  facet normal 0 0 1
    outer loop
      vertex 21.979 0.656661 3
      vertex 14.1 0 3
      vertex 21.875 0 3
    endloop
  endfacet
  facet normal 0 0 1
    outer loop
      vertex 13.9972 0.648935 3
      vertex 21.979 0.656661 3
      vertex 22.2808 1.24904 3
    endloop
  endfacet
  facet normal 0 0 1
    outer loop
      vertex 13.6989 1.23435 3
      vertex 22.2808 1.24904 3
      vertex 22.751 1.71916 3
    endloop
  endfacet
  facet normal 0 0 1
    outer loop
      vertex 13.2343 1.69894 3
      vertex 22.751 1.71916 3
      vertex 23.3433 2.02099 3
    endloop
  endfacet
  facet normal 0 0 1
    outer loop
      vertex 21.979 0.656661 3
      vertex 13.9972 0.648935 3
      vertex 14.1 0 3
    endloop
  endfacet
  facet normal 0 0 1
    outer loop
      vertex 12.6489 1.99722 3
      vertex 23.3433 2.02099 3
      vertex 24 2.125 3
    endloop
  endfacet
  facet normal 0 0 1
    outer loop
      vertex 22.2808 1.24904 3
      vertex 13.6989 1.23435 3
      vertex 13.9972 0.648935 3
    endloop
  endfacet
  facet normal 0 0 1
    outer loop
      vertex 22.751 1.71916 3
      vertex 13.2343 1.69894 3
      vertex 13.6989 1.23435 3
    endloop
  endfacet
  facet normal -0 0 1
    outer loop
      vertex -12 6 3
      vertex 24 2.125 3
      vertex 72.9 6 3
    endloop
  endfacet
  facet normal 0 0 1
    outer loop
      vertex 23.3433 2.02099 3
      vertex 12.6489 1.99722 3
      vertex 13.2343 1.69894 3
    endloop
  endfacet
  facet normal 0 0 1
    outer loop
      vertex 24 2.125 3
      vertex 12 2.1 3
      vertex 12.6489 1.99722 3
    endloop
  endfacet
  facet normal 0 0 1
    outer loop
      vertex 10.0028 0.648935 3
      vertex 2.075 0 3
      vertex 9.9 0 3
    endloop
  endfacet
  facet normal 0 0 1
    outer loop
      vertex 1.97344 0.64121 3
      vertex 10.0028 0.648935 3
      vertex 10.3011 1.23435 3
    endloop
  endfacet
  facet normal 0 0 1
    outer loop
      vertex 1.67871 1.21965 3
      vertex 10.3011 1.23435 3
      vertex 10.7657 1.69894 3
    endloop
  endfacet
  facet normal 0 0 1
    outer loop
      vertex 1.21965 1.67871 3
      vertex 10.7657 1.69894 3
      vertex 11.3511 1.99722 3
    endloop
  endfacet
  facet normal 0 0 1
    outer loop
      vertex 10.0028 0.648935 3
      vertex 1.97344 0.64121 3
      vertex 2.075 0 3
    endloop
  endfacet
  facet normal 0 0 1
    outer loop
      vertex 0.64121 1.97344 3
      vertex 11.3511 1.99722 3
      vertex 12 2.1 3
    endloop
  endfacet
  facet normal 0 0 1
    outer loop
      vertex 10.3011 1.23435 3
      vertex 1.67871 1.21965 3
      vertex 1.97344 0.64121 3
    endloop
  endfacet
  facet normal 0 0 1
    outer loop
      vertex 10.7657 1.69894 3
      vertex 1.21965 1.67871 3
      vertex 1.67871 1.21965 3
    endloop
  endfacet
  facet normal 0 0 1
    outer loop
      vertex 24 2.125 3
      vertex -12 6 3
      vertex 12 2.1 3
    endloop
  endfacet
  facet normal 0 0 1
    outer loop
      vertex 11.3511 1.99722 3
      vertex 0.64121 1.97344 3
      vertex 1.21965 1.67871 3
    endloop
  endfacet
  facet normal 0 -0 1
    outer loop
      vertex 0 2.075 3
      vertex 12 2.1 3
      vertex -12 6 3
    endloop
  endfacet
  facet normal 0 0 1
    outer loop
      vertex -1.97344 0.64121 3
      vertex -12 6 3
      vertex -2.075 0 3
    endloop
  endfacet
  facet normal 0 0 1
    outer loop
      vertex -1.67871 1.21965 3
      vertex -12 6 3
      vertex -1.97344 0.64121 3
    endloop
  endfacet
  facet normal 0 0 1
    outer loop
      vertex -1.21965 1.67871 3
      vertex -12 6 3
      vertex -1.67871 1.21965 3
    endloop
  endfacet
  facet normal 0 0 1
    outer loop
      vertex -0.64121 1.97344 3
      vertex -12 6 3
      vertex -1.21965 1.67871 3
    endloop
  endfacet
  facet normal 0 0 1
    outer loop
      vertex 0 2.075 3
      vertex -12 6 3
      vertex -0.64121 1.97344 3
    endloop
  endfacet
  facet normal 0 0 1
    outer loop
      vertex 12 2.1 3
      vertex 0 2.075 3
      vertex 0.64121 1.97344 3
    endloop
  endfacet
  facet normal -0 0 1
    outer loop
      vertex 62.0923 -0.679837 3
      vertex 72.9 -6 3
      vertex 62.2 0 3
    endloop
  endfacet
  facet normal -0 0 1
    outer loop
      vertex 61.7798 -1.29313 3
      vertex 72.9 -6 3
      vertex 62.0923 -0.679837 3
    endloop
  endfacet
  facet normal -0 0 1
    outer loop
      vertex 61.2931 -1.77984 3
      vertex 72.9 -6 3
      vertex 61.7798 -1.29313 3
    endloop
  endfacet
  facet normal -0 0 1
    outer loop
      vertex 60.6798 -2.09232 3
      vertex 72.9 -6 3
      vertex 61.2931 -1.77984 3
    endloop
  endfacet
  facet normal -0 0 1
    outer loop
      vertex 60 -2.2 3
      vertex 72.9 -6 3
      vertex 60.6798 -2.09232 3
    endloop
  endfacet
  facet normal -0 0 1
    outer loop
      vertex 48 -2.175 3
      vertex 60 -2.2 3
      vertex 59.3202 -2.09232 3
    endloop
  endfacet
  facet normal -0 0 1
    outer loop
      vertex 50.175 0 3
      vertex 57.9077 -0.679837 3
      vertex 57.8 0 3
    endloop
  endfacet
  facet normal -0 0 1
    outer loop
      vertex 50.0685 -0.672112 3
      vertex 57.9077 -0.679837 3
      vertex 50.175 0 3
    endloop
  endfacet
  facet normal 0 0 1
    outer loop
      vertex 57.9077 -0.679837 3
      vertex 50.0685 -0.672112 3
      vertex 58.2202 -1.29313 3
    endloop
  endfacet
  facet normal -0 0 1
    outer loop
      vertex 49.7596 -1.27843 3
      vertex 58.2202 -1.29313 3
      vertex 50.0685 -0.672112 3
    endloop
  endfacet
  facet normal 0 0 1
    outer loop
      vertex 58.2202 -1.29313 3
      vertex 49.7596 -1.27843 3
      vertex 58.7069 -1.77984 3
    endloop
  endfacet
  facet normal -0 0 1
    outer loop
      vertex 49.2784 -1.75961 3
      vertex 58.7069 -1.77984 3
      vertex 49.7596 -1.27843 3
    endloop
  endfacet
  facet normal 0 0 1
    outer loop
      vertex 58.7069 -1.77984 3
      vertex 49.2784 -1.75961 3
      vertex 59.3202 -2.09232 3
    endloop
  endfacet
  facet normal -0 0 1
    outer loop
      vertex 48.6721 -2.06855 3
      vertex 59.3202 -2.09232 3
      vertex 49.2784 -1.75961 3
    endloop
  endfacet
  facet normal 0 0 1
    outer loop
      vertex 48 -2.175 3
      vertex 59.3202 -2.09232 3
      vertex 48.6721 -2.06855 3
    endloop
  endfacet
  facet normal 0 0 1
    outer loop
      vertex 60 -2.2 3
      vertex 48 -2.175 3
      vertex 72.9 -6 3
    endloop
  endfacet
  facet normal -0 0 1
    outer loop
      vertex 38.15 0 3
      vertex 45.9314 -0.672112 3
      vertex 45.825 0 3
    endloop
  endfacet
  facet normal -0 0 1
    outer loop
      vertex 38.0448 -0.664386 3
      vertex 45.9314 -0.672112 3
      vertex 38.15 0 3
    endloop
  endfacet
  facet normal 0 0 1
    outer loop
      vertex 45.9314 -0.672112 3
      vertex 38.0448 -0.664386 3
      vertex 46.2404 -1.27843 3
    endloop
  endfacet
  facet normal -0 0 1
    outer loop
      vertex 37.7394 -1.26374 3
      vertex 46.2404 -1.27843 3
      vertex 38.0448 -0.664386 3
    endloop
  endfacet
  facet normal 0 0 1
    outer loop
      vertex 46.2404 -1.27843 3
      vertex 37.7394 -1.26374 3
      vertex 46.7216 -1.75961 3
    endloop
  endfacet
  facet normal -0 0 1
    outer loop
      vertex 37.2637 -1.73939 3
      vertex 46.7216 -1.75961 3
      vertex 37.7394 -1.26374 3
    endloop
  endfacet
  facet normal 0 0 1
    outer loop
      vertex 46.7216 -1.75961 3
      vertex 37.2637 -1.73939 3
      vertex 47.3279 -2.06855 3
    endloop
  endfacet
  facet normal -0 0 1
    outer loop
      vertex 36.6644 -2.04477 3
      vertex 47.3279 -2.06855 3
      vertex 37.2637 -1.73939 3
    endloop
  endfacet
  facet normal 0 0 1
    outer loop
      vertex 47.3279 -2.06855 3
      vertex 36.6644 -2.04477 3
      vertex 48 -2.175 3
    endloop
  endfacet
  facet normal -0 0 1
    outer loop
      vertex 36 -2.15 3
      vertex 48 -2.175 3
      vertex 36.6644 -2.04477 3
    endloop
  endfacet
  facet normal 0 0 1
    outer loop
      vertex 48 -2.175 3
      vertex 36 -2.15 3
      vertex 72.9 -6 3
    endloop
  endfacet
  facet normal -0 0 1
    outer loop
      vertex 26.125 0 3
      vertex 33.9552 -0.664386 3
      vertex 33.85 0 3
    endloop
  endfacet
  facet normal -0 0 1
    outer loop
      vertex 26.021 -0.656661 3
      vertex 33.9552 -0.664386 3
      vertex 26.125 0 3
    endloop
  endfacet
  facet normal 0 0 1
    outer loop
      vertex 33.9552 -0.664386 3
      vertex 26.021 -0.656661 3
      vertex 34.2606 -1.26374 3
    endloop
  endfacet
  facet normal -0 0 1
    outer loop
      vertex 25.7192 -1.24904 3
      vertex 34.2606 -1.26374 3
      vertex 26.021 -0.656661 3
    endloop
  endfacet
  facet normal 0 0 1
    outer loop
      vertex 34.2606 -1.26374 3
      vertex 25.7192 -1.24904 3
      vertex 34.7363 -1.73939 3
    endloop
  endfacet
  facet normal -0 0 1
    outer loop
      vertex 25.249 -1.71916 3
      vertex 34.7363 -1.73939 3
      vertex 25.7192 -1.24904 3
    endloop
  endfacet
  facet normal 0 0 1
    outer loop
      vertex 34.7363 -1.73939 3
      vertex 25.249 -1.71916 3
      vertex 35.3356 -2.04477 3
    endloop
  endfacet
  facet normal -0 0 1
    outer loop
      vertex 24.6567 -2.02099 3
      vertex 35.3356 -2.04477 3
      vertex 25.249 -1.71916 3
    endloop
  endfacet
  facet normal 0 0 1
    outer loop
      vertex 35.3356 -2.04477 3
      vertex 24.6567 -2.02099 3
      vertex 36 -2.15 3
    endloop
  endfacet
  facet normal -0 0 1
    outer loop
      vertex 24 -2.125 3
      vertex 36 -2.15 3
      vertex 24.6567 -2.02099 3
    endloop
  endfacet
  facet normal 0 0 1
    outer loop
      vertex 36 -2.15 3
      vertex 24 -2.125 3
      vertex 72.9 -6 3
    endloop
  endfacet
  facet normal -0 0 1
    outer loop
      vertex 14.1 0 3
      vertex 21.979 -0.656661 3
      vertex 21.875 0 3
    endloop
  endfacet
  facet normal -0 0 1
    outer loop
      vertex 13.9972 -0.648935 3
      vertex 21.979 -0.656661 3
      vertex 14.1 0 3
    endloop
  endfacet
  facet normal 0 0 1
    outer loop
      vertex 21.979 -0.656661 3
      vertex 13.9972 -0.648935 3
      vertex 22.2808 -1.24904 3
    endloop
  endfacet
  facet normal -0 0 1
    outer loop
      vertex 13.6989 -1.23435 3
      vertex 22.2808 -1.24904 3
      vertex 13.9972 -0.648935 3
    endloop
  endfacet
  facet normal 0 0 1
    outer loop
      vertex 22.2808 -1.24904 3
      vertex 13.6989 -1.23435 3
      vertex 22.751 -1.71916 3
    endloop
  endfacet
  facet normal -0 0 1
    outer loop
      vertex 13.2343 -1.69894 3
      vertex 22.751 -1.71916 3
      vertex 13.6989 -1.23435 3
    endloop
  endfacet
  facet normal 0 0 1
    outer loop
      vertex 22.751 -1.71916 3
      vertex 13.2343 -1.69894 3
      vertex 23.3433 -2.02099 3
    endloop
  endfacet
  facet normal -0 0 1
    outer loop
      vertex 12.6489 -1.99722 3
      vertex 23.3433 -2.02099 3
      vertex 13.2343 -1.69894 3
    endloop
  endfacet
  facet normal 0 0 1
    outer loop
      vertex 23.3433 -2.02099 3
      vertex 12.6489 -1.99722 3
      vertex 24 -2.125 3
    endloop
  endfacet
  facet normal -0 0 1
    outer loop
      vertex 12 -2.1 3
      vertex 24 -2.125 3
      vertex 12.6489 -1.99722 3
    endloop
  endfacet
  facet normal 0 0 1
    outer loop
      vertex -12 -6 3
      vertex 24 -2.125 3
      vertex 12 -2.1 3
    endloop
  endfacet
  facet normal -0 0 1
    outer loop
      vertex 2.075 0 3
      vertex 10.0028 -0.648935 3
      vertex 9.9 0 3
    endloop
  endfacet
  facet normal -0 0 1
    outer loop
      vertex 1.97344 -0.64121 3
      vertex 10.0028 -0.648935 3
      vertex 2.075 0 3
    endloop
  endfacet
  facet normal 0 0 1
    outer loop
      vertex 10.0028 -0.648935 3
      vertex 1.97344 -0.64121 3
      vertex 10.3011 -1.23435 3
    endloop
  endfacet
  facet normal -0 0 1
    outer loop
      vertex 1.67871 -1.21965 3
      vertex 10.3011 -1.23435 3
      vertex 1.97344 -0.64121 3
    endloop
  endfacet
  facet normal 0 0 1
    outer loop
      vertex 10.3011 -1.23435 3
      vertex 1.67871 -1.21965 3
      vertex 10.7657 -1.69894 3
    endloop
  endfacet
  facet normal -0 0 1
    outer loop
      vertex 1.21965 -1.67871 3
      vertex 10.7657 -1.69894 3
      vertex 1.67871 -1.21965 3
    endloop
  endfacet
  facet normal 0 0 1
    outer loop
      vertex 10.7657 -1.69894 3
      vertex 1.21965 -1.67871 3
      vertex 11.3511 -1.99722 3
    endloop
  endfacet
  facet normal -0 0 1
    outer loop
      vertex 0.64121 -1.97344 3
      vertex 11.3511 -1.99722 3
      vertex 1.21965 -1.67871 3
    endloop
  endfacet
  facet normal 0 0 1
    outer loop
      vertex 11.3511 -1.99722 3
      vertex 0.64121 -1.97344 3
      vertex 12 -2.1 3
    endloop
  endfacet
  facet normal -0 0 1
    outer loop
      vertex 0 -2.075 3
      vertex 12 -2.1 3
      vertex 0.64121 -1.97344 3
    endloop
  endfacet
  facet normal 0 0 1
    outer loop
      vertex 12 -2.1 3
      vertex 0 -2.075 3
      vertex -12 -6 3
    endloop
  endfacet
  facet normal 0 0 1
    outer loop
      vertex -12 -6 3
      vertex -2.075 0 3
      vertex -12 6 3
    endloop
  endfacet
  facet normal 0 0 1
    outer loop
      vertex -2.075 0 3
      vertex -12 -6 3
      vertex -1.97344 -0.64121 3
    endloop
  endfacet
  facet normal 0 0 1
    outer loop
      vertex -1.97344 -0.64121 3
      vertex -12 -6 3
      vertex -1.67871 -1.21965 3
    endloop
  endfacet
  facet normal 0 0 1
    outer loop
      vertex 24 -2.125 3
      vertex -12 -6 3
      vertex 72.9 -6 3
    endloop
  endfacet
  facet normal 0 0 1
    outer loop
      vertex -0.64121 -1.97344 3
      vertex -12 -6 3
      vertex 0 -2.075 3
    endloop
  endfacet
  facet normal 0 0 1
    outer loop
      vertex -1.21965 -1.67871 3
      vertex -12 -6 3
      vertex -0.64121 -1.97344 3
    endloop
  endfacet
  facet normal 0 0 1
    outer loop
      vertex -1.67871 -1.21965 3
      vertex -12 -6 3
      vertex -1.21965 -1.67871 3
    endloop
  endfacet
  facet normal -0 0 1
    outer loop
      vertex -13.8541 5.70634 3
      vertex -12 -6 3
      vertex -12 6 3
    endloop
  endfacet
  facet normal 0 0 1
    outer loop
      vertex -13.8541 5.70634 3
      vertex -13.8541 -5.70634 3
      vertex -12 -6 3
    endloop
  endfacet
  facet normal -0 0 1
    outer loop
      vertex -15.5267 4.8541 3
      vertex -13.8541 -5.70634 3
      vertex -13.8541 5.70634 3
    endloop
  endfacet
  facet normal 0 0 1
    outer loop
      vertex -15.5267 4.8541 3
      vertex -15.5267 -4.8541 3
      vertex -13.8541 -5.70634 3
    endloop
  endfacet
  facet normal -0 0 1
    outer loop
      vertex -16.8541 3.52671 3
      vertex -15.5267 -4.8541 3
      vertex -15.5267 4.8541 3
    endloop
  endfacet
  facet normal 0 0 1
    outer loop
      vertex -16.8541 3.52671 3
      vertex -16.8541 -3.52671 3
      vertex -15.5267 -4.8541 3
    endloop
  endfacet
  facet normal -0 0 1
    outer loop
      vertex -17.7063 1.8541 3
      vertex -16.8541 -3.52671 3
      vertex -16.8541 3.52671 3
    endloop
  endfacet
  facet normal 0 0 1
    outer loop
      vertex -17.7063 1.8541 3
      vertex -17.7063 -1.8541 3
      vertex -16.8541 -3.52671 3
    endloop
  endfacet
  facet normal 0 -0 1
    outer loop
      vertex -17.7063 -1.8541 3
      vertex -17.7063 1.8541 3
      vertex -18 0 3
    endloop
  endfacet
  facet normal -0.707104 0.707109 0
    outer loop
      vertex -16.8541 3.52671 0
      vertex -15.5267 4.8541 3
      vertex -15.5267 4.8541 0
    endloop
  endfacet
  facet normal -0.707104 0.707109 0
    outer loop
      vertex -15.5267 4.8541 3
      vertex -16.8541 3.52671 0
      vertex -16.8541 3.52671 3
    endloop
  endfacet
  facet normal -0.707104 -0.707109 0
    outer loop
      vertex -15.5267 -4.8541 0
      vertex -16.8541 -3.52671 3
      vertex -16.8541 -3.52671 0
    endloop
  endfacet
  facet normal -0.707104 -0.707109 0
    outer loop
      vertex -16.8541 -3.52671 3
      vertex -15.5267 -4.8541 0
      vertex -15.5267 -4.8541 3
    endloop
  endfacet
  facet normal -0.891015 -0.453975 0
    outer loop
      vertex -16.8541 -3.52671 0
      vertex -17.7063 -1.8541 3
      vertex -17.7063 -1.8541 0
    endloop
  endfacet
  facet normal -0.891015 -0.453975 0
    outer loop
      vertex -17.7063 -1.8541 3
      vertex -16.8541 -3.52671 0
      vertex -16.8541 -3.52671 3
    endloop
  endfacet
  facet normal -0.453994 -0.891005 0
    outer loop
      vertex -15.5267 -4.8541 0
      vertex -13.8541 -5.70634 3
      vertex -15.5267 -4.8541 3
    endloop
  endfacet
  facet normal -0.453994 -0.891005 -0
    outer loop
      vertex -13.8541 -5.70634 3
      vertex -15.5267 -4.8541 0
      vertex -13.8541 -5.70634 0
    endloop
  endfacet
  facet normal 0.987685 0.156455 0
    outer loop
      vertex 78.9 0 3
      vertex 78.6063 1.8541 0
      vertex 78.6063 1.8541 3
    endloop
  endfacet
  facet normal 0.987685 0.156455 0
    outer loop
      vertex 78.6063 1.8541 0
      vertex 78.9 0 3
      vertex 78.9 0 0
    endloop
  endfacet
  facet normal 0.156434 0.987688 -0
    outer loop
      vertex 74.7541 5.70634 0
      vertex 72.9 6 3
      vertex 74.7541 5.70634 3
    endloop
  endfacet
  facet normal 0.156434 0.987688 0
    outer loop
      vertex 72.9 6 3
      vertex 74.7541 5.70634 0
      vertex 72.9 6 0
    endloop
  endfacet
  facet normal 0.707104 0.707109 -0
    outer loop
      vertex 77.7541 3.52671 0
      vertex 76.4267 4.8541 3
      vertex 77.7541 3.52671 3
    endloop
  endfacet
  facet normal 0.707104 0.707109 0
    outer loop
      vertex 76.4267 4.8541 3
      vertex 77.7541 3.52671 0
      vertex 76.4267 4.8541 0
    endloop
  endfacet
  facet normal 0.891015 0.453975 0
    outer loop
      vertex 78.6063 1.8541 3
      vertex 77.7541 3.52671 0
      vertex 77.7541 3.52671 3
    endloop
  endfacet
  facet normal 0.891015 0.453975 0
    outer loop
      vertex 77.7541 3.52671 0
      vertex 78.6063 1.8541 3
      vertex 78.6063 1.8541 0
    endloop
  endfacet
  facet normal 0.453994 0.891005 -0
    outer loop
      vertex 76.4267 4.8541 0
      vertex 74.7541 5.70634 3
      vertex 76.4267 4.8541 3
    endloop
  endfacet
  facet normal 0.453994 0.891005 0
    outer loop
      vertex 74.7541 5.70634 3
      vertex 76.4267 4.8541 0
      vertex 74.7541 5.70634 0
    endloop
  endfacet
  facet normal 0.156434 -0.987688 0
    outer loop
      vertex 72.9 -6 0
      vertex 74.7541 -5.70634 3
      vertex 72.9 -6 3
    endloop
  endfacet
  facet normal 0.156434 -0.987688 0
    outer loop
      vertex 74.7541 -5.70634 3
      vertex 72.9 -6 0
      vertex 74.7541 -5.70634 0
    endloop
  endfacet
  facet normal 0.707104 -0.707109 0
    outer loop
      vertex 76.4267 -4.8541 0
      vertex 77.7541 -3.52671 3
      vertex 76.4267 -4.8541 3
    endloop
  endfacet
  facet normal 0.707104 -0.707109 0
    outer loop
      vertex 77.7541 -3.52671 3
      vertex 76.4267 -4.8541 0
      vertex 77.7541 -3.52671 0
    endloop
  endfacet
  facet normal 0.891015 -0.453975 0
    outer loop
      vertex 77.7541 -3.52671 3
      vertex 78.6063 -1.8541 0
      vertex 78.6063 -1.8541 3
    endloop
  endfacet
  facet normal 0.891015 -0.453975 0
    outer loop
      vertex 78.6063 -1.8541 0
      vertex 77.7541 -3.52671 3
      vertex 77.7541 -3.52671 0
    endloop
  endfacet
  facet normal 0.453994 -0.891005 0
    outer loop
      vertex 74.7541 -5.70634 0
      vertex 76.4267 -4.8541 3
      vertex 74.7541 -5.70634 3
    endloop
  endfacet
  facet normal 0.453994 -0.891005 0
    outer loop
      vertex 76.4267 -4.8541 3
      vertex 74.7541 -5.70634 0
      vertex 76.4267 -4.8541 0
    endloop
  endfacet
  facet normal 0.987685 -0.156455 0
    outer loop
      vertex 78.6063 -1.8541 3
      vertex 78.9 0 0
      vertex 78.9 0 3
    endloop
  endfacet
  facet normal 0.987685 -0.156455 0
    outer loop
      vertex 78.9 0 0
      vertex 78.6063 -1.8541 3
      vertex 78.6063 -1.8541 0
    endloop
  endfacet
  facet normal 0 -1 0
    outer loop
      vertex -12 -6 0
      vertex 72.9 -6 3
      vertex -12 -6 3
    endloop
  endfacet
  facet normal 0 -1 -0
    outer loop
      vertex 72.9 -6 3
      vertex -12 -6 0
      vertex 72.9 -6 0
    endloop
  endfacet
  facet normal 0 1 -0
    outer loop
      vertex 72.9 6 0
      vertex -12 6 3
      vertex 72.9 6 3
    endloop
  endfacet
  facet normal 0 1 0
    outer loop
      vertex -12 6 3
      vertex 72.9 6 0
      vertex -12 6 0
    endloop
  endfacet
  facet normal -0.891006 0.453991 0
    outer loop
      vertex 1.67871 -1.21965 1.25
      vertex 1.97344 -0.64121 3
      vertex 1.97344 -0.64121 1.25
    endloop
  endfacet
  facet normal -0.891006 0.453991 0
    outer loop
      vertex 1.97344 -0.64121 3
      vertex 1.67871 -1.21965 1.25
      vertex 1.67871 -1.21965 3
    endloop
  endfacet
  facet normal -0.987688 0.156438 0
    outer loop
      vertex 1.97344 -0.64121 1.25
      vertex 2.075 0 3
      vertex 2.075 0 1.25
    endloop
  endfacet
  facet normal -0.987688 0.156438 0
    outer loop
      vertex 2.075 0 3
      vertex 1.97344 -0.64121 1.25
      vertex 1.97344 -0.64121 3
    endloop
  endfacet
  facet normal -0.987688 -0.156438 0
    outer loop
      vertex 2.075 0 1.25
      vertex 1.97344 0.64121 3
      vertex 1.97344 0.64121 1.25
    endloop
  endfacet
  facet normal -0.987688 -0.156438 0
    outer loop
      vertex 1.97344 0.64121 3
      vertex 2.075 0 1.25
      vertex 2.075 0 3
    endloop
  endfacet
  facet normal 0.987688 0.156438 0
    outer loop
      vertex -1.97344 -0.64121 3
      vertex -2.075 0 1.25
      vertex -2.075 0 3
    endloop
  endfacet
  facet normal 0.987688 0.156438 0
    outer loop
      vertex -2.075 0 1.25
      vertex -1.97344 -0.64121 3
      vertex -1.97344 -0.64121 1.25
    endloop
  endfacet
  facet normal 0.987688 -0.156438 0
    outer loop
      vertex -2.075 0 3
      vertex -1.97344 0.64121 1.25
      vertex -1.97344 0.64121 3
    endloop
  endfacet
  facet normal 0.987688 -0.156438 0
    outer loop
      vertex -1.97344 0.64121 1.25
      vertex -2.075 0 3
      vertex -2.075 0 1.25
    endloop
  endfacet
  facet normal 0.707107 0.707107 0
    outer loop
      vertex -1.21965 -1.67871 3
      vertex -1.67871 -1.21965 1.25
      vertex -1.67871 -1.21965 3
    endloop
  endfacet
  facet normal 0.707107 0.707107 0
    outer loop
      vertex -1.67871 -1.21965 1.25
      vertex -1.21965 -1.67871 3
      vertex -1.21965 -1.67871 1.25
    endloop
  endfacet
  facet normal -0.707107 0.707107 0
    outer loop
      vertex 1.21965 -1.67871 1.25
      vertex 1.67871 -1.21965 3
      vertex 1.67871 -1.21965 1.25
    endloop
  endfacet
  facet normal -0.707107 0.707107 0
    outer loop
      vertex 1.67871 -1.21965 3
      vertex 1.21965 -1.67871 1.25
      vertex 1.21965 -1.67871 3
    endloop
  endfacet
  facet normal -0.453991 0.891006 0
    outer loop
      vertex 1.21965 -1.67871 1.25
      vertex 0.64121 -1.97344 3
      vertex 1.21965 -1.67871 3
    endloop
  endfacet
  facet normal -0.453991 0.891006 0
    outer loop
      vertex 0.64121 -1.97344 3
      vertex 1.21965 -1.67871 1.25
      vertex 0.64121 -1.97344 1.25
    endloop
  endfacet
  facet normal 0.891006 -0.453991 0
    outer loop
      vertex -1.97344 0.64121 3
      vertex -1.67871 1.21965 1.25
      vertex -1.67871 1.21965 3
    endloop
  endfacet
  facet normal 0.891006 -0.453991 0
    outer loop
      vertex -1.67871 1.21965 1.25
      vertex -1.97344 0.64121 3
      vertex -1.97344 0.64121 1.25
    endloop
  endfacet
  facet normal -0.707107 -0.707107 0
    outer loop
      vertex 1.67871 1.21965 1.25
      vertex 1.21965 1.67871 3
      vertex 1.21965 1.67871 1.25
    endloop
  endfacet
  facet normal -0.707107 -0.707107 0
    outer loop
      vertex 1.21965 1.67871 3
      vertex 1.67871 1.21965 1.25
      vertex 1.67871 1.21965 3
    endloop
  endfacet
  facet normal 0.453991 0.891006 -0
    outer loop
      vertex -0.64121 -1.97344 1.25
      vertex -1.21965 -1.67871 3
      vertex -0.64121 -1.97344 3
    endloop
  endfacet
  facet normal 0.453991 0.891006 0
    outer loop
      vertex -1.21965 -1.67871 3
      vertex -0.64121 -1.97344 1.25
      vertex -1.21965 -1.67871 1.25
    endloop
  endfacet
  facet normal -0.891006 -0.453991 0
    outer loop
      vertex 1.97344 0.64121 1.25
      vertex 1.67871 1.21965 3
      vertex 1.67871 1.21965 1.25
    endloop
  endfacet
  facet normal -0.891006 -0.453991 0
    outer loop
      vertex 1.67871 1.21965 3
      vertex 1.97344 0.64121 1.25
      vertex 1.97344 0.64121 3
    endloop
  endfacet
  facet normal 0.156438 -0.987688 0
    outer loop
      vertex -0.64121 1.97344 1.25
      vertex 0 2.075 3
      vertex -0.64121 1.97344 3
    endloop
  endfacet
  facet normal 0.156438 -0.987688 0
    outer loop
      vertex 0 2.075 3
      vertex -0.64121 1.97344 1.25
      vertex 0 2.075 1.25
    endloop
  endfacet
  facet normal 0.707107 -0.707107 0
    outer loop
      vertex -1.67871 1.21965 3
      vertex -1.21965 1.67871 1.25
      vertex -1.21965 1.67871 3
    endloop
  endfacet
  facet normal 0.707107 -0.707107 0
    outer loop
      vertex -1.21965 1.67871 1.25
      vertex -1.67871 1.21965 3
      vertex -1.67871 1.21965 1.25
    endloop
  endfacet
  facet normal 0.156438 0.987688 -0
    outer loop
      vertex 0 -2.075 1.25
      vertex -0.64121 -1.97344 3
      vertex 0 -2.075 3
    endloop
  endfacet
  facet normal 0.156438 0.987688 0
    outer loop
      vertex -0.64121 -1.97344 3
      vertex 0 -2.075 1.25
      vertex -0.64121 -1.97344 1.25
    endloop
  endfacet
  facet normal -0.156438 0.987688 0
    outer loop
      vertex 0.64121 -1.97344 1.25
      vertex 0 -2.075 3
      vertex 0.64121 -1.97344 3
    endloop
  endfacet
  facet normal -0.156438 0.987688 0
    outer loop
      vertex 0 -2.075 3
      vertex 0.64121 -1.97344 1.25
      vertex 0 -2.075 1.25
    endloop
  endfacet
  facet normal 0 0 1
    outer loop
      vertex 1.97344 0.64121 1.25
      vertex 1.97344 -0.64121 1.25
      vertex 2.075 0 1.25
    endloop
  endfacet
  facet normal 0 0 1
    outer loop
      vertex 1.67871 1.21965 1.25
      vertex 1.97344 -0.64121 1.25
      vertex 1.97344 0.64121 1.25
    endloop
  endfacet
  facet normal 0 0 1
    outer loop
      vertex 1.67871 1.21965 1.25
      vertex 1.67871 -1.21965 1.25
      vertex 1.97344 -0.64121 1.25
    endloop
  endfacet
  facet normal 0 0 1
    outer loop
      vertex 1.21965 1.67871 1.25
      vertex 1.67871 -1.21965 1.25
      vertex 1.67871 1.21965 1.25
    endloop
  endfacet
  facet normal 0 0 1
    outer loop
      vertex 1.21965 1.67871 1.25
      vertex 1.21965 -1.67871 1.25
      vertex 1.67871 -1.21965 1.25
    endloop
  endfacet
  facet normal 0 0 1
    outer loop
      vertex 0.64121 1.97344 1.25
      vertex 1.21965 -1.67871 1.25
      vertex 1.21965 1.67871 1.25
    endloop
  endfacet
  facet normal 0 0 1
    outer loop
      vertex 0.64121 1.97344 1.25
      vertex 0.64121 -1.97344 1.25
      vertex 1.21965 -1.67871 1.25
    endloop
  endfacet
  facet normal 0 0 1
    outer loop
      vertex 0 2.075 1.25
      vertex 0.64121 -1.97344 1.25
      vertex 0.64121 1.97344 1.25
    endloop
  endfacet
  facet normal 0 0 1
    outer loop
      vertex 0 2.075 1.25
      vertex 0 -2.075 1.25
      vertex 0.64121 -1.97344 1.25
    endloop
  endfacet
  facet normal -0 0 1
    outer loop
      vertex -0.64121 1.97344 1.25
      vertex 0 -2.075 1.25
      vertex 0 2.075 1.25
    endloop
  endfacet
  facet normal 0 0 1
    outer loop
      vertex -0.64121 1.97344 1.25
      vertex -0.64121 -1.97344 1.25
      vertex 0 -2.075 1.25
    endloop
  endfacet
  facet normal -0 0 1
    outer loop
      vertex -1.21965 1.67871 1.25
      vertex -0.64121 -1.97344 1.25
      vertex -0.64121 1.97344 1.25
    endloop
  endfacet
  facet normal 0 0 1
    outer loop
      vertex -1.21965 1.67871 1.25
      vertex -1.21965 -1.67871 1.25
      vertex -0.64121 -1.97344 1.25
    endloop
  endfacet
  facet normal -0 0 1
    outer loop
      vertex -1.67871 1.21965 1.25
      vertex -1.21965 -1.67871 1.25
      vertex -1.21965 1.67871 1.25
    endloop
  endfacet
  facet normal 0 0 1
    outer loop
      vertex -1.67871 1.21965 1.25
      vertex -1.67871 -1.21965 1.25
      vertex -1.21965 -1.67871 1.25
    endloop
  endfacet
  facet normal -0 0 1
    outer loop
      vertex -1.97344 0.64121 1.25
      vertex -1.67871 -1.21965 1.25
      vertex -1.67871 1.21965 1.25
    endloop
  endfacet
  facet normal 0 0 1
    outer loop
      vertex -1.97344 0.64121 1.25
      vertex -1.97344 -0.64121 1.25
      vertex -1.67871 -1.21965 1.25
    endloop
  endfacet
  facet normal 0 -0 1
    outer loop
      vertex -1.97344 -0.64121 1.25
      vertex -1.97344 0.64121 1.25
      vertex -2.075 0 1.25
    endloop
  endfacet
  facet normal 0.891006 0.453991 0
    outer loop
      vertex -1.67871 -1.21965 3
      vertex -1.97344 -0.64121 1.25
      vertex -1.97344 -0.64121 3
    endloop
  endfacet
  facet normal 0.891006 0.453991 0
    outer loop
      vertex -1.97344 -0.64121 1.25
      vertex -1.67871 -1.21965 3
      vertex -1.67871 -1.21965 1.25
    endloop
  endfacet
  facet normal -0.156438 -0.987688 0
    outer loop
      vertex 0 2.075 1.25
      vertex 0.64121 1.97344 3
      vertex 0 2.075 3
    endloop
  endfacet
  facet normal -0.156438 -0.987688 -0
    outer loop
      vertex 0.64121 1.97344 3
      vertex 0 2.075 1.25
      vertex 0.64121 1.97344 1.25
    endloop
  endfacet
  facet normal -0.453991 -0.891006 0
    outer loop
      vertex 0.64121 1.97344 1.25
      vertex 1.21965 1.67871 3
      vertex 0.64121 1.97344 3
    endloop
  endfacet
  facet normal -0.453991 -0.891006 -0
    outer loop
      vertex 1.21965 1.67871 3
      vertex 0.64121 1.97344 1.25
      vertex 1.21965 1.67871 1.25
    endloop
  endfacet
  facet normal 0.453991 -0.891006 0
    outer loop
      vertex -1.21965 1.67871 1.25
      vertex -0.64121 1.97344 3
      vertex -1.21965 1.67871 3
    endloop
  endfacet
  facet normal 0.453991 -0.891006 0
    outer loop
      vertex -0.64121 1.97344 3
      vertex -1.21965 1.67871 1.25
      vertex -0.64121 1.97344 1.25
    endloop
  endfacet
  facet normal -0.987684 0.156462 0
    outer loop
      vertex 13.9972 -0.648935 1.25
      vertex 14.1 0 3
      vertex 14.1 0 1.25
    endloop
  endfacet
  facet normal -0.987684 0.156462 0
    outer loop
      vertex 14.1 0 3
      vertex 13.9972 -0.648935 1.25
      vertex 13.9972 -0.648935 3
    endloop
  endfacet
  facet normal -0.987684 -0.156462 0
    outer loop
      vertex 14.1 0 1.25
      vertex 13.9972 0.648935 3
      vertex 13.9972 0.648935 1.25
    endloop
  endfacet
  facet normal -0.987684 -0.156462 0
    outer loop
      vertex 13.9972 0.648935 3
      vertex 14.1 0 1.25
      vertex 14.1 0 3
    endloop
  endfacet
  facet normal 0.987684 0.156462 0
    outer loop
      vertex 10.0028 -0.648935 3
      vertex 9.9 0 1.25
      vertex 9.9 0 3
    endloop
  endfacet
  facet normal 0.987684 0.156462 0
    outer loop
      vertex 9.9 0 1.25
      vertex 10.0028 -0.648935 3
      vertex 10.0028 -0.648935 1.25
    endloop
  endfacet
  facet normal 0.987684 -0.156462 0
    outer loop
      vertex 9.9 0 3
      vertex 10.0028 0.648935 1.25
      vertex 10.0028 0.648935 3
    endloop
  endfacet
  facet normal 0.987684 -0.156462 0
    outer loop
      vertex 10.0028 0.648935 1.25
      vertex 9.9 0 3
      vertex 9.9 0 1.25
    endloop
  endfacet
  facet normal 0 0 1
    outer loop
      vertex 13.9972 0.648935 1.25
      vertex 13.9972 -0.648935 1.25
      vertex 14.1 0 1.25
    endloop
  endfacet
  facet normal 0 0 1
    outer loop
      vertex 13.6989 1.23435 1.25
      vertex 13.9972 -0.648935 1.25
      vertex 13.9972 0.648935 1.25
    endloop
  endfacet
  facet normal 0 0 1
    outer loop
      vertex 13.6989 1.23435 1.25
      vertex 13.6989 -1.23435 1.25
      vertex 13.9972 -0.648935 1.25
    endloop
  endfacet
  facet normal 0 0 1
    outer loop
      vertex 13.2343 1.69894 1.25
      vertex 13.6989 -1.23435 1.25
      vertex 13.6989 1.23435 1.25
    endloop
  endfacet
  facet normal 0 0 1
    outer loop
      vertex 13.2343 1.69894 1.25
      vertex 13.2343 -1.69894 1.25
      vertex 13.6989 -1.23435 1.25
    endloop
  endfacet
  facet normal 0 0 1
    outer loop
      vertex 12.6489 1.99722 1.25
      vertex 13.2343 -1.69894 1.25
      vertex 13.2343 1.69894 1.25
    endloop
  endfacet
  facet normal 0 0 1
    outer loop
      vertex 12.6489 1.99722 1.25
      vertex 12.6489 -1.99722 1.25
      vertex 13.2343 -1.69894 1.25
    endloop
  endfacet
  facet normal 0 0 1
    outer loop
      vertex 12 2.1 1.25
      vertex 12.6489 -1.99722 1.25
      vertex 12.6489 1.99722 1.25
    endloop
  endfacet
  facet normal 0 0 1
    outer loop
      vertex 12 2.1 1.25
      vertex 12 -2.1 1.25
      vertex 12.6489 -1.99722 1.25
    endloop
  endfacet
  facet normal -0 0 1
    outer loop
      vertex 11.3511 1.99722 1.25
      vertex 12 -2.1 1.25
      vertex 12 2.1 1.25
    endloop
  endfacet
  facet normal 0 0 1
    outer loop
      vertex 11.3511 1.99722 1.25
      vertex 11.3511 -1.99722 1.25
      vertex 12 -2.1 1.25
    endloop
  endfacet
  facet normal -0 0 1
    outer loop
      vertex 10.7657 1.69894 1.25
      vertex 11.3511 -1.99722 1.25
      vertex 11.3511 1.99722 1.25
    endloop
  endfacet
  facet normal 0 0 1
    outer loop
      vertex 10.7657 1.69894 1.25
      vertex 10.7657 -1.69894 1.25
      vertex 11.3511 -1.99722 1.25
    endloop
  endfacet
  facet normal -0 0 1
    outer loop
      vertex 10.3011 1.23435 1.25
      vertex 10.7657 -1.69894 1.25
      vertex 10.7657 1.69894 1.25
    endloop
  endfacet
  facet normal 0 0 1
    outer loop
      vertex 10.3011 1.23435 1.25
      vertex 10.3011 -1.23435 1.25
      vertex 10.7657 -1.69894 1.25
    endloop
  endfacet
  facet normal -0 0 1
    outer loop
      vertex 10.0028 0.648935 1.25
      vertex 10.3011 -1.23435 1.25
      vertex 10.3011 1.23435 1.25
    endloop
  endfacet
  facet normal 0 0 1
    outer loop
      vertex 10.0028 0.648935 1.25
      vertex 10.0028 -0.648935 1.25
      vertex 10.3011 -1.23435 1.25
    endloop
  endfacet
  facet normal 0 -0 1
    outer loop
      vertex 10.0028 -0.648935 1.25
      vertex 10.0028 0.648935 1.25
      vertex 9.9 0 1.25
    endloop
  endfacet
  facet normal 0.890997 0.45401 0
    outer loop
      vertex 10.3011 -1.23435 3
      vertex 10.0028 -0.648935 1.25
      vertex 10.0028 -0.648935 3
    endloop
  endfacet
  facet normal 0.890997 0.45401 0
    outer loop
      vertex 10.0028 -0.648935 1.25
      vertex 10.3011 -1.23435 3
      vertex 10.3011 -1.23435 1.25
    endloop
  endfacet
  facet normal -0.890997 0.45401 0
    outer loop
      vertex 13.6989 -1.23435 1.25
      vertex 13.9972 -0.648935 3
      vertex 13.9972 -0.648935 1.25
    endloop
  endfacet
  facet normal -0.890997 0.45401 0
    outer loop
      vertex 13.9972 -0.648935 3
      vertex 13.6989 -1.23435 1.25
      vertex 13.6989 -1.23435 3
    endloop
  endfacet
  facet normal 0.890997 -0.45401 0
    outer loop
      vertex 10.0028 0.648935 3
      vertex 10.3011 1.23435 1.25
      vertex 10.3011 1.23435 3
    endloop
  endfacet
  facet normal 0.890997 -0.45401 0
    outer loop
      vertex 10.3011 1.23435 1.25
      vertex 10.0028 0.648935 3
      vertex 10.0028 0.648935 1.25
    endloop
  endfacet
  facet normal 0.453995 -0.891004 0
    outer loop
      vertex 10.7657 1.69894 1.25
      vertex 11.3511 1.99722 3
      vertex 10.7657 1.69894 3
    endloop
  endfacet
  facet normal 0.453995 -0.891004 0
    outer loop
      vertex 11.3511 1.99722 3
      vertex 10.7657 1.69894 1.25
      vertex 11.3511 1.99722 1.25
    endloop
  endfacet
  facet normal -0.156441 -0.987687 0
    outer loop
      vertex 12 2.1 1.25
      vertex 12.6489 1.99722 3
      vertex 12 2.1 3
    endloop
  endfacet
  facet normal -0.156441 -0.987687 -0
    outer loop
      vertex 12.6489 1.99722 3
      vertex 12 2.1 1.25
      vertex 12.6489 1.99722 1.25
    endloop
  endfacet
  facet normal 0.453995 0.891004 -0
    outer loop
      vertex 11.3511 -1.99722 1.25
      vertex 10.7657 -1.69894 3
      vertex 11.3511 -1.99722 3
    endloop
  endfacet
  facet normal 0.453995 0.891004 0
    outer loop
      vertex 10.7657 -1.69894 3
      vertex 11.3511 -1.99722 1.25
      vertex 10.7657 -1.69894 1.25
    endloop
  endfacet
  facet normal 0.707099 0.707114 0
    outer loop
      vertex 10.7657 -1.69894 3
      vertex 10.3011 -1.23435 1.25
      vertex 10.3011 -1.23435 3
    endloop
  endfacet
  facet normal 0.707099 0.707114 0
    outer loop
      vertex 10.3011 -1.23435 1.25
      vertex 10.7657 -1.69894 3
      vertex 10.7657 -1.69894 1.25
    endloop
  endfacet
  facet normal -0.156441 0.987687 0
    outer loop
      vertex 12.6489 -1.99722 1.25
      vertex 12 -2.1 3
      vertex 12.6489 -1.99722 3
    endloop
  endfacet
  facet normal -0.156441 0.987687 0
    outer loop
      vertex 12 -2.1 3
      vertex 12.6489 -1.99722 1.25
      vertex 12 -2.1 1.25
    endloop
  endfacet
  facet normal -0.707099 0.707114 0
    outer loop
      vertex 13.2343 -1.69894 1.25
      vertex 13.6989 -1.23435 3
      vertex 13.6989 -1.23435 1.25
    endloop
  endfacet
  facet normal -0.707099 0.707114 0
    outer loop
      vertex 13.6989 -1.23435 3
      vertex 13.2343 -1.69894 1.25
      vertex 13.2343 -1.69894 3
    endloop
  endfacet
  facet normal 0.707099 -0.707114 0
    outer loop
      vertex 10.3011 1.23435 3
      vertex 10.7657 1.69894 1.25
      vertex 10.7657 1.69894 3
    endloop
  endfacet
  facet normal 0.707099 -0.707114 0
    outer loop
      vertex 10.7657 1.69894 1.25
      vertex 10.3011 1.23435 3
      vertex 10.3011 1.23435 1.25
    endloop
  endfacet
  facet normal 0.156441 -0.987687 0
    outer loop
      vertex 11.3511 1.99722 1.25
      vertex 12 2.1 3
      vertex 11.3511 1.99722 3
    endloop
  endfacet
  facet normal 0.156441 -0.987687 0
    outer loop
      vertex 12 2.1 3
      vertex 11.3511 1.99722 1.25
      vertex 12 2.1 1.25
    endloop
  endfacet
  facet normal 0.156441 0.987687 -0
    outer loop
      vertex 12 -2.1 1.25
      vertex 11.3511 -1.99722 3
      vertex 12 -2.1 3
    endloop
  endfacet
  facet normal 0.156441 0.987687 0
    outer loop
      vertex 11.3511 -1.99722 3
      vertex 12 -2.1 1.25
      vertex 11.3511 -1.99722 1.25
    endloop
  endfacet
  facet normal -0.453995 -0.891004 0
    outer loop
      vertex 12.6489 1.99722 1.25
      vertex 13.2343 1.69894 3
      vertex 12.6489 1.99722 3
    endloop
  endfacet
  facet normal -0.453995 -0.891004 -0
    outer loop
      vertex 13.2343 1.69894 3
      vertex 12.6489 1.99722 1.25
      vertex 13.2343 1.69894 1.25
    endloop
  endfacet
  facet normal -0.707099 -0.707114 0
    outer loop
      vertex 13.6989 1.23435 1.25
      vertex 13.2343 1.69894 3
      vertex 13.2343 1.69894 1.25
    endloop
  endfacet
  facet normal -0.707099 -0.707114 0
    outer loop
      vertex 13.2343 1.69894 3
      vertex 13.6989 1.23435 1.25
      vertex 13.6989 1.23435 3
    endloop
  endfacet
  facet normal -0.453995 0.891004 0
    outer loop
      vertex 13.2343 -1.69894 1.25
      vertex 12.6489 -1.99722 3
      vertex 13.2343 -1.69894 3
    endloop
  endfacet
  facet normal -0.453995 0.891004 0
    outer loop
      vertex 12.6489 -1.99722 3
      vertex 13.2343 -1.69894 1.25
      vertex 12.6489 -1.99722 1.25
    endloop
  endfacet
  facet normal -0.890997 -0.45401 0
    outer loop
      vertex 13.9972 0.648935 1.25
      vertex 13.6989 1.23435 3
      vertex 13.6989 1.23435 1.25
    endloop
  endfacet
  facet normal -0.890997 -0.45401 0
    outer loop
      vertex 13.6989 1.23435 3
      vertex 13.9972 0.648935 1.25
      vertex 13.9972 0.648935 3
    endloop
  endfacet
  facet normal -0.987689 0.156427 0
    outer loop
      vertex 26.021 -0.656661 1.25
      vertex 26.125 0 3
      vertex 26.125 0 1.25
    endloop
  endfacet
  facet normal -0.987689 0.156427 0
    outer loop
      vertex 26.125 0 3
      vertex 26.021 -0.656661 1.25
      vertex 26.021 -0.656661 3
    endloop
  endfacet
  facet normal -0.987689 -0.156427 0
    outer loop
      vertex 26.125 0 1.25
      vertex 26.021 0.656661 3
      vertex 26.021 0.656661 1.25
    endloop
  endfacet
  facet normal -0.987689 -0.156427 0
    outer loop
      vertex 26.021 0.656661 3
      vertex 26.125 0 1.25
      vertex 26.125 0 3
    endloop
  endfacet
  facet normal 0.987689 0.156427 0
    outer loop
      vertex 21.979 -0.656661 3
      vertex 21.875 0 1.25
      vertex 21.875 0 3
    endloop
  endfacet
  facet normal 0.987689 0.156427 0
    outer loop
      vertex 21.875 0 1.25
      vertex 21.979 -0.656661 3
      vertex 21.979 -0.656661 1.25
    endloop
  endfacet
  facet normal 0.987689 -0.156427 0
    outer loop
      vertex 21.875 0 3
      vertex 21.979 0.656661 1.25
      vertex 21.979 0.656661 3
    endloop
  endfacet
  facet normal 0.987689 -0.156427 0
    outer loop
      vertex 21.979 0.656661 1.25
      vertex 21.875 0 3
      vertex 21.875 0 1.25
    endloop
  endfacet
  facet normal 0.454036 -0.890983 0
    outer loop
      vertex 22.751 1.71916 1.25
      vertex 23.3433 2.02099 3
      vertex 22.751 1.71916 3
    endloop
  endfacet
  facet normal 0.454036 -0.890983 0
    outer loop
      vertex 23.3433 2.02099 3
      vertex 22.751 1.71916 1.25
      vertex 23.3433 2.02099 1.25
    endloop
  endfacet
  facet normal 0.707047 0.707167 0
    outer loop
      vertex 22.751 -1.71916 3
      vertex 22.2808 -1.24904 1.25
      vertex 22.2808 -1.24904 3
    endloop
  endfacet
  facet normal 0.707047 0.707167 0
    outer loop
      vertex 22.2808 -1.24904 1.25
      vertex 22.751 -1.71916 3
      vertex 22.751 -1.71916 1.25
    endloop
  endfacet
  facet normal -0.707047 0.707167 0
    outer loop
      vertex 25.7192 -1.24904 1.25
      vertex 25.249 -1.71916 3
      vertex 25.7192 -1.24904 3
    endloop
  endfacet
  facet normal -0.707047 0.707167 0
    outer loop
      vertex 25.249 -1.71916 3
      vertex 25.7192 -1.24904 1.25
      vertex 25.249 -1.71916 1.25
    endloop
  endfacet
  facet normal -0.891026 0.453952 0
    outer loop
      vertex 25.7192 -1.24904 1.25
      vertex 26.021 -0.656661 3
      vertex 26.021 -0.656661 1.25
    endloop
  endfacet
  facet normal -0.891026 0.453952 0
    outer loop
      vertex 26.021 -0.656661 3
      vertex 25.7192 -1.24904 1.25
      vertex 25.7192 -1.24904 3
    endloop
  endfacet
  facet normal 0.454036 0.890983 -0
    outer loop
      vertex 23.3433 -2.02099 1.25
      vertex 22.751 -1.71916 3
      vertex 23.3433 -2.02099 3
    endloop
  endfacet
  facet normal 0.454036 0.890983 0
    outer loop
      vertex 22.751 -1.71916 3
      vertex 23.3433 -2.02099 1.25
      vertex 22.751 -1.71916 1.25
    endloop
  endfacet
  facet normal -0.454036 0.890983 0
    outer loop
      vertex 25.249 -1.71916 1.25
      vertex 24.6567 -2.02099 3
      vertex 25.249 -1.71916 3
    endloop
  endfacet
  facet normal -0.454036 0.890983 0
    outer loop
      vertex 24.6567 -2.02099 3
      vertex 25.249 -1.71916 1.25
      vertex 24.6567 -2.02099 1.25
    endloop
  endfacet
  facet normal 0.891026 -0.453952 0
    outer loop
      vertex 21.979 0.656661 3
      vertex 22.2808 1.24904 1.25
      vertex 22.2808 1.24904 3
    endloop
  endfacet
  facet normal 0.891026 -0.453952 0
    outer loop
      vertex 22.2808 1.24904 1.25
      vertex 21.979 0.656661 3
      vertex 21.979 0.656661 1.25
    endloop
  endfacet
  facet normal -0.707047 -0.707167 0
    outer loop
      vertex 25.249 1.71916 1.25
      vertex 25.7192 1.24904 3
      vertex 25.249 1.71916 3
    endloop
  endfacet
  facet normal -0.707047 -0.707167 -0
    outer loop
      vertex 25.7192 1.24904 3
      vertex 25.249 1.71916 1.25
      vertex 25.7192 1.24904 1.25
    endloop
  endfacet
  facet normal 0.156433 0.987689 -0
    outer loop
      vertex 24 -2.125 1.25
      vertex 23.3433 -2.02099 3
      vertex 24 -2.125 3
    endloop
  endfacet
  facet normal 0.156433 0.987689 0
    outer loop
      vertex 23.3433 -2.02099 3
      vertex 24 -2.125 1.25
      vertex 23.3433 -2.02099 1.25
    endloop
  endfacet
  facet normal -0.156433 0.987689 0
    outer loop
      vertex 24.6567 -2.02099 1.25
      vertex 24 -2.125 3
      vertex 24.6567 -2.02099 3
    endloop
  endfacet
  facet normal -0.156433 0.987689 0
    outer loop
      vertex 24 -2.125 3
      vertex 24.6567 -2.02099 1.25
      vertex 24 -2.125 1.25
    endloop
  endfacet
  facet normal -0.891026 -0.453952 0
    outer loop
      vertex 26.021 0.656661 1.25
      vertex 25.7192 1.24904 3
      vertex 25.7192 1.24904 1.25
    endloop
  endfacet
  facet normal -0.891026 -0.453952 0
    outer loop
      vertex 25.7192 1.24904 3
      vertex 26.021 0.656661 1.25
      vertex 26.021 0.656661 3
    endloop
  endfacet
  facet normal 0.156433 -0.987689 0
    outer loop
      vertex 23.3433 2.02099 1.25
      vertex 24 2.125 3
      vertex 23.3433 2.02099 3
    endloop
  endfacet
  facet normal 0.156433 -0.987689 0
    outer loop
      vertex 24 2.125 3
      vertex 23.3433 2.02099 1.25
      vertex 24 2.125 1.25
    endloop
  endfacet
  facet normal 0.707047 -0.707167 0
    outer loop
      vertex 22.2808 1.24904 3
      vertex 22.751 1.71916 1.25
      vertex 22.751 1.71916 3
    endloop
  endfacet
  facet normal 0.707047 -0.707167 0
    outer loop
      vertex 22.751 1.71916 1.25
      vertex 22.2808 1.24904 3
      vertex 22.2808 1.24904 1.25
    endloop
  endfacet
  facet normal 0 0 1
    outer loop
      vertex 26.021 0.656661 1.25
      vertex 26.021 -0.656661 1.25
      vertex 26.125 0 1.25
    endloop
  endfacet
  facet normal 0 0 1
    outer loop
      vertex 25.7192 1.24904 1.25
      vertex 26.021 -0.656661 1.25
      vertex 26.021 0.656661 1.25
    endloop
  endfacet
  facet normal 0 0 1
    outer loop
      vertex 25.7192 1.24904 1.25
      vertex 25.7192 -1.24904 1.25
      vertex 26.021 -0.656661 1.25
    endloop
  endfacet
  facet normal 0 0 1
    outer loop
      vertex 25.249 1.71916 1.25
      vertex 25.7192 -1.24904 1.25
      vertex 25.7192 1.24904 1.25
    endloop
  endfacet
  facet normal 0 0 1
    outer loop
      vertex 25.249 1.71916 1.25
      vertex 25.249 -1.71916 1.25
      vertex 25.7192 -1.24904 1.25
    endloop
  endfacet
  facet normal 0 0 1
    outer loop
      vertex 24.6567 2.02099 1.25
      vertex 25.249 -1.71916 1.25
      vertex 25.249 1.71916 1.25
    endloop
  endfacet
  facet normal 0 0 1
    outer loop
      vertex 24.6567 2.02099 1.25
      vertex 24.6567 -2.02099 1.25
      vertex 25.249 -1.71916 1.25
    endloop
  endfacet
  facet normal 0 0 1
    outer loop
      vertex 24 2.125 1.25
      vertex 24.6567 -2.02099 1.25
      vertex 24.6567 2.02099 1.25
    endloop
  endfacet
  facet normal 0 0 1
    outer loop
      vertex 24 2.125 1.25
      vertex 24 -2.125 1.25
      vertex 24.6567 -2.02099 1.25
    endloop
  endfacet
  facet normal -0 0 1
    outer loop
      vertex 23.3433 2.02099 1.25
      vertex 24 -2.125 1.25
      vertex 24 2.125 1.25
    endloop
  endfacet
  facet normal 0 0 1
    outer loop
      vertex 23.3433 2.02099 1.25
      vertex 23.3433 -2.02099 1.25
      vertex 24 -2.125 1.25
    endloop
  endfacet
  facet normal -0 0 1
    outer loop
      vertex 22.751 1.71916 1.25
      vertex 23.3433 -2.02099 1.25
      vertex 23.3433 2.02099 1.25
    endloop
  endfacet
  facet normal 0 0 1
    outer loop
      vertex 22.751 1.71916 1.25
      vertex 22.751 -1.71916 1.25
      vertex 23.3433 -2.02099 1.25
    endloop
  endfacet
  facet normal -0 0 1
    outer loop
      vertex 22.2808 1.24904 1.25
      vertex 22.751 -1.71916 1.25
      vertex 22.751 1.71916 1.25
    endloop
  endfacet
  facet normal 0 0 1
    outer loop
      vertex 22.2808 1.24904 1.25
      vertex 22.2808 -1.24904 1.25
      vertex 22.751 -1.71916 1.25
    endloop
  endfacet
  facet normal -0 0 1
    outer loop
      vertex 21.979 0.656661 1.25
      vertex 22.2808 -1.24904 1.25
      vertex 22.2808 1.24904 1.25
    endloop
  endfacet
  facet normal 0 0 1
    outer loop
      vertex 21.979 0.656661 1.25
      vertex 21.979 -0.656661 1.25
      vertex 22.2808 -1.24904 1.25
    endloop
  endfacet
  facet normal 0 -0 1
    outer loop
      vertex 21.979 -0.656661 1.25
      vertex 21.979 0.656661 1.25
      vertex 21.875 0 1.25
    endloop
  endfacet
  facet normal 0.891026 0.453952 0
    outer loop
      vertex 22.2808 -1.24904 3
      vertex 21.979 -0.656661 1.25
      vertex 21.979 -0.656661 3
    endloop
  endfacet
  facet normal 0.891026 0.453952 0
    outer loop
      vertex 21.979 -0.656661 1.25
      vertex 22.2808 -1.24904 3
      vertex 22.2808 -1.24904 1.25
    endloop
  endfacet
  facet normal -0.156433 -0.987689 0
    outer loop
      vertex 24 2.125 1.25
      vertex 24.6567 2.02099 3
      vertex 24 2.125 3
    endloop
  endfacet
  facet normal -0.156433 -0.987689 -0
    outer loop
      vertex 24.6567 2.02099 3
      vertex 24 2.125 1.25
      vertex 24.6567 2.02099 1.25
    endloop
  endfacet
  facet normal -0.454036 -0.890983 0
    outer loop
      vertex 24.6567 2.02099 1.25
      vertex 25.249 1.71916 3
      vertex 24.6567 2.02099 3
    endloop
  endfacet
  facet normal -0.454036 -0.890983 -0
    outer loop
      vertex 25.249 1.71916 3
      vertex 24.6567 2.02099 1.25
      vertex 25.249 1.71916 1.25
    endloop
  endfacet
  facet normal -0.987695 0.156393 0
    outer loop
      vertex 38.0448 -0.664386 1.25
      vertex 38.15 0 3
      vertex 38.15 0 1.25
    endloop
  endfacet
  facet normal -0.987695 0.156393 0
    outer loop
      vertex 38.15 0 3
      vertex 38.0448 -0.664386 1.25
      vertex 38.0448 -0.664386 3
    endloop
  endfacet
  facet normal -0.987695 -0.156393 0
    outer loop
      vertex 38.15 0 1.25
      vertex 38.0448 0.664386 3
      vertex 38.0448 0.664386 1.25
    endloop
  endfacet
  facet normal -0.987695 -0.156393 0
    outer loop
      vertex 38.0448 0.664386 3
      vertex 38.15 0 1.25
      vertex 38.15 0 3
    endloop
  endfacet
  facet normal 0.987695 -0.156393 0
    outer loop
      vertex 33.85 0 3
      vertex 33.9552 0.664386 1.25
      vertex 33.9552 0.664386 3
    endloop
  endfacet
  facet normal 0.987695 -0.156393 0
    outer loop
      vertex 33.9552 0.664386 1.25
      vertex 33.85 0 3
      vertex 33.85 0 1.25
    endloop
  endfacet
  facet normal 0.156434 -0.987688 0
    outer loop
      vertex 35.3356 2.04477 1.25
      vertex 36 2.15 3
      vertex 35.3356 2.04477 3
    endloop
  endfacet
  facet normal 0.156434 -0.987688 0
    outer loop
      vertex 36 2.15 3
      vertex 35.3356 2.04477 1.25
      vertex 36 2.15 1.25
    endloop
  endfacet
  facet normal 0.890998 0.454007 0
    outer loop
      vertex 34.2606 -1.26374 3
      vertex 33.9552 -0.664386 1.25
      vertex 33.9552 -0.664386 3
    endloop
  endfacet
  facet normal 0.890998 0.454007 0
    outer loop
      vertex 33.9552 -0.664386 1.25
      vertex 34.2606 -1.26374 3
      vertex 34.2606 -1.26374 1.25
    endloop
  endfacet
  facet normal -0.70707 0.707144 0
    outer loop
      vertex 37.7394 -1.26374 1.25
      vertex 37.2637 -1.73939 3
      vertex 37.7394 -1.26374 3
    endloop
  endfacet
  facet normal -0.70707 0.707144 0
    outer loop
      vertex 37.2637 -1.73939 3
      vertex 37.7394 -1.26374 1.25
      vertex 37.2637 -1.73939 1.25
    endloop
  endfacet
  facet normal -0.890998 0.454007 0
    outer loop
      vertex 37.7394 -1.26374 1.25
      vertex 38.0448 -0.664386 3
      vertex 38.0448 -0.664386 1.25
    endloop
  endfacet
  facet normal -0.890998 0.454007 0
    outer loop
      vertex 38.0448 -0.664386 3
      vertex 37.7394 -1.26374 1.25
      vertex 37.7394 -1.26374 3
    endloop
  endfacet
  facet normal 0.454016 0.890994 -0
    outer loop
      vertex 35.3356 -2.04477 1.25
      vertex 34.7363 -1.73939 3
      vertex 35.3356 -2.04477 3
    endloop
  endfacet
  facet normal 0.454016 0.890994 0
    outer loop
      vertex 34.7363 -1.73939 3
      vertex 35.3356 -2.04477 1.25
      vertex 34.7363 -1.73939 1.25
    endloop
  endfacet
  facet normal -0.454016 0.890994 0
    outer loop
      vertex 37.2637 -1.73939 1.25
      vertex 36.6644 -2.04477 3
      vertex 37.2637 -1.73939 3
    endloop
  endfacet
  facet normal -0.454016 0.890994 0
    outer loop
      vertex 36.6644 -2.04477 3
      vertex 37.2637 -1.73939 1.25
      vertex 36.6644 -2.04477 1.25
    endloop
  endfacet
  facet normal 0.890998 -0.454007 0
    outer loop
      vertex 33.9552 0.664386 3
      vertex 34.2606 1.26374 1.25
      vertex 34.2606 1.26374 3
    endloop
  endfacet
  facet normal 0.890998 -0.454007 0
    outer loop
      vertex 34.2606 1.26374 1.25
      vertex 33.9552 0.664386 3
      vertex 33.9552 0.664386 1.25
    endloop
  endfacet
  facet normal 0.987695 0.156393 0
    outer loop
      vertex 33.9552 -0.664386 3
      vertex 33.85 0 1.25
      vertex 33.85 0 3
    endloop
  endfacet
  facet normal 0.987695 0.156393 0
    outer loop
      vertex 33.85 0 1.25
      vertex 33.9552 -0.664386 3
      vertex 33.9552 -0.664386 1.25
    endloop
  endfacet
  facet normal 0 0 1
    outer loop
      vertex 38.0448 0.664386 1.25
      vertex 38.0448 -0.664386 1.25
      vertex 38.15 0 1.25
    endloop
  endfacet
  facet normal 0 0 1
    outer loop
      vertex 37.7394 1.26374 1.25
      vertex 38.0448 -0.664386 1.25
      vertex 38.0448 0.664386 1.25
    endloop
  endfacet
  facet normal 0 0 1
    outer loop
      vertex 37.7394 1.26374 1.25
      vertex 37.7394 -1.26374 1.25
      vertex 38.0448 -0.664386 1.25
    endloop
  endfacet
  facet normal 0 0 1
    outer loop
      vertex 37.2637 1.73939 1.25
      vertex 37.7394 -1.26374 1.25
      vertex 37.7394 1.26374 1.25
    endloop
  endfacet
  facet normal 0 0 1
    outer loop
      vertex 37.2637 1.73939 1.25
      vertex 37.2637 -1.73939 1.25
      vertex 37.7394 -1.26374 1.25
    endloop
  endfacet
  facet normal 0 0 1
    outer loop
      vertex 36.6644 2.04477 1.25
      vertex 37.2637 -1.73939 1.25
      vertex 37.2637 1.73939 1.25
    endloop
  endfacet
  facet normal 0 0 1
    outer loop
      vertex 36.6644 2.04477 1.25
      vertex 36.6644 -2.04477 1.25
      vertex 37.2637 -1.73939 1.25
    endloop
  endfacet
  facet normal 0 0 1
    outer loop
      vertex 36 2.15 1.25
      vertex 36.6644 -2.04477 1.25
      vertex 36.6644 2.04477 1.25
    endloop
  endfacet
  facet normal 0 0 1
    outer loop
      vertex 36 2.15 1.25
      vertex 36 -2.15 1.25
      vertex 36.6644 -2.04477 1.25
    endloop
  endfacet
  facet normal -0 0 1
    outer loop
      vertex 35.3356 2.04477 1.25
      vertex 36 -2.15 1.25
      vertex 36 2.15 1.25
    endloop
  endfacet
  facet normal 0 0 1
    outer loop
      vertex 35.3356 2.04477 1.25
      vertex 35.3356 -2.04477 1.25
      vertex 36 -2.15 1.25
    endloop
  endfacet
  facet normal -0 0 1
    outer loop
      vertex 34.7363 1.73939 1.25
      vertex 35.3356 -2.04477 1.25
      vertex 35.3356 2.04477 1.25
    endloop
  endfacet
  facet normal 0 0 1
    outer loop
      vertex 34.7363 1.73939 1.25
      vertex 34.7363 -1.73939 1.25
      vertex 35.3356 -2.04477 1.25
    endloop
  endfacet
  facet normal -0 0 1
    outer loop
      vertex 34.2606 1.26374 1.25
      vertex 34.7363 -1.73939 1.25
      vertex 34.7363 1.73939 1.25
    endloop
  endfacet
  facet normal 0 0 1
    outer loop
      vertex 34.2606 1.26374 1.25
      vertex 34.2606 -1.26374 1.25
      vertex 34.7363 -1.73939 1.25
    endloop
  endfacet
  facet normal -0 0 1
    outer loop
      vertex 33.9552 0.664386 1.25
      vertex 34.2606 -1.26374 1.25
      vertex 34.2606 1.26374 1.25
    endloop
  endfacet
  facet normal 0 0 1
    outer loop
      vertex 33.9552 0.664386 1.25
      vertex 33.9552 -0.664386 1.25
      vertex 34.2606 -1.26374 1.25
    endloop
  endfacet
  facet normal 0 -0 1
    outer loop
      vertex 33.9552 -0.664386 1.25
      vertex 33.9552 0.664386 1.25
      vertex 33.85 0 1.25
    endloop
  endfacet
  facet normal 0.70707 0.707144 0
    outer loop
      vertex 34.7363 -1.73939 3
      vertex 34.2606 -1.26374 1.25
      vertex 34.2606 -1.26374 3
    endloop
  endfacet
  facet normal 0.70707 0.707144 0
    outer loop
      vertex 34.2606 -1.26374 1.25
      vertex 34.7363 -1.73939 3
      vertex 34.7363 -1.73939 1.25
    endloop
  endfacet
  facet normal 0.156434 0.987688 -0
    outer loop
      vertex 36 -2.15 1.25
      vertex 35.3356 -2.04477 3
      vertex 36 -2.15 3
    endloop
  endfacet
  facet normal 0.156434 0.987688 0
    outer loop
      vertex 35.3356 -2.04477 3
      vertex 36 -2.15 1.25
      vertex 35.3356 -2.04477 1.25
    endloop
  endfacet
  facet normal -0.156434 0.987688 0
    outer loop
      vertex 36.6644 -2.04477 1.25
      vertex 36 -2.15 3
      vertex 36.6644 -2.04477 3
    endloop
  endfacet
  facet normal -0.156434 0.987688 0
    outer loop
      vertex 36 -2.15 3
      vertex 36.6644 -2.04477 1.25
      vertex 36 -2.15 1.25
    endloop
  endfacet
  facet normal 0.454016 -0.890994 0
    outer loop
      vertex 34.7363 1.73939 1.25
      vertex 35.3356 2.04477 3
      vertex 34.7363 1.73939 3
    endloop
  endfacet
  facet normal 0.454016 -0.890994 0
    outer loop
      vertex 35.3356 2.04477 3
      vertex 34.7363 1.73939 1.25
      vertex 35.3356 2.04477 1.25
    endloop
  endfacet
  facet normal -0.70707 -0.707144 0
    outer loop
      vertex 37.2637 1.73939 1.25
      vertex 37.7394 1.26374 3
      vertex 37.2637 1.73939 3
    endloop
  endfacet
  facet normal -0.70707 -0.707144 -0
    outer loop
      vertex 37.7394 1.26374 3
      vertex 37.2637 1.73939 1.25
      vertex 37.7394 1.26374 1.25
    endloop
  endfacet
  facet normal -0.156434 -0.987688 0
    outer loop
      vertex 36 2.15 1.25
      vertex 36.6644 2.04477 3
      vertex 36 2.15 3
    endloop
  endfacet
  facet normal -0.156434 -0.987688 -0
    outer loop
      vertex 36.6644 2.04477 3
      vertex 36 2.15 1.25
      vertex 36.6644 2.04477 1.25
    endloop
  endfacet
  facet normal -0.454016 -0.890994 0
    outer loop
      vertex 36.6644 2.04477 1.25
      vertex 37.2637 1.73939 3
      vertex 36.6644 2.04477 3
    endloop
  endfacet
  facet normal -0.454016 -0.890994 -0
    outer loop
      vertex 37.2637 1.73939 3
      vertex 36.6644 2.04477 1.25
      vertex 37.2637 1.73939 1.25
    endloop
  endfacet
  facet normal 0.70707 -0.707144 0
    outer loop
      vertex 34.2606 1.26374 3
      vertex 34.7363 1.73939 1.25
      vertex 34.7363 1.73939 3
    endloop
  endfacet
  facet normal 0.70707 -0.707144 0
    outer loop
      vertex 34.7363 1.73939 1.25
      vertex 34.2606 1.26374 3
      vertex 34.2606 1.26374 1.25
    endloop
  endfacet
  facet normal -0.890998 -0.454007 0
    outer loop
      vertex 38.0448 0.664386 1.25
      vertex 37.7394 1.26374 3
      vertex 37.7394 1.26374 1.25
    endloop
  endfacet
  facet normal -0.890998 -0.454007 0
    outer loop
      vertex 37.7394 1.26374 3
      vertex 38.0448 0.664386 1.25
      vertex 38.0448 0.664386 3
    endloop
  endfacet
  facet normal -0.987677 0.156503 0
    outer loop
      vertex 50.0685 -0.672112 1.25
      vertex 50.175 0 3
      vertex 50.175 0 1.25
    endloop
  endfacet
  facet normal -0.987677 0.156503 0
    outer loop
      vertex 50.175 0 3
      vertex 50.0685 -0.672112 1.25
      vertex 50.0685 -0.672112 3
    endloop
  endfacet
  facet normal -0.987677 -0.156503 0
    outer loop
      vertex 50.175 0 1.25
      vertex 50.0685 0.672112 3
      vertex 50.0685 0.672112 1.25
    endloop
  endfacet
  facet normal -0.987677 -0.156503 0
    outer loop
      vertex 50.0685 0.672112 3
      vertex 50.175 0 1.25
      vertex 50.175 0 3
    endloop
  endfacet
  facet normal 0.9877 -0.15636 0
    outer loop
      vertex 45.825 0 3
      vertex 45.9314 0.672112 1.25
      vertex 45.9314 0.672112 3
    endloop
  endfacet
  facet normal 0.9877 -0.15636 0
    outer loop
      vertex 45.9314 0.672112 1.25
      vertex 45.825 0 3
      vertex 45.825 0 1.25
    endloop
  endfacet
  facet normal 0.156434 0.987688 -0
    outer loop
      vertex 48 -2.175 1.25
      vertex 47.3279 -2.06855 3
      vertex 48 -2.175 3
    endloop
  endfacet
  facet normal 0.156434 0.987688 0
    outer loop
      vertex 47.3279 -2.06855 3
      vertex 48 -2.175 1.25
      vertex 47.3279 -2.06855 1.25
    endloop
  endfacet
  facet normal -0.891027 0.45395 0
    outer loop
      vertex 49.7596 -1.27843 1.25
      vertex 50.0685 -0.672112 3
      vertex 50.0685 -0.672112 1.25
    endloop
  endfacet
  facet normal -0.891027 0.45395 0
    outer loop
      vertex 50.0685 -0.672112 3
      vertex 49.7596 -1.27843 1.25
      vertex 49.7596 -1.27843 3
    endloop
  endfacet
  facet normal 0.890968 -0.454067 0
    outer loop
      vertex 45.9314 0.672112 3
      vertex 46.2404 1.27843 1.25
      vertex 46.2404 1.27843 3
    endloop
  endfacet
  facet normal 0.890968 -0.454067 0
    outer loop
      vertex 46.2404 1.27843 1.25
      vertex 45.9314 0.672112 3
      vertex 45.9314 0.672112 1.25
    endloop
  endfacet
  facet normal -0.454008 -0.890998 0
    outer loop
      vertex 48.6721 2.06855 1.25
      vertex 49.2784 1.75961 3
      vertex 48.6721 2.06855 3
    endloop
  endfacet
  facet normal -0.454008 -0.890998 -0
    outer loop
      vertex 49.2784 1.75961 3
      vertex 48.6721 2.06855 1.25
      vertex 49.2784 1.75961 1.25
    endloop
  endfacet
  facet normal 0.454008 -0.890998 0
    outer loop
      vertex 46.7216 1.75961 1.25
      vertex 47.3279 2.06855 3
      vertex 46.7216 1.75961 3
    endloop
  endfacet
  facet normal 0.454008 -0.890998 0
    outer loop
      vertex 47.3279 2.06855 3
      vertex 46.7216 1.75961 1.25
      vertex 47.3279 2.06855 1.25
    endloop
  endfacet
  facet normal 0.9877 0.15636 0
    outer loop
      vertex 45.9314 -0.672112 3
      vertex 45.825 0 1.25
      vertex 45.825 0 3
    endloop
  endfacet
  facet normal 0.9877 0.15636 0
    outer loop
      vertex 45.825 0 1.25
      vertex 45.9314 -0.672112 3
      vertex 45.9314 -0.672112 1.25
    endloop
  endfacet
  facet normal 0 0 1
    outer loop
      vertex 50.0685 0.672112 1.25
      vertex 50.0685 -0.672112 1.25
      vertex 50.175 0 1.25
    endloop
  endfacet
  facet normal 0 0 1
    outer loop
      vertex 49.7596 1.27843 1.25
      vertex 50.0685 -0.672112 1.25
      vertex 50.0685 0.672112 1.25
    endloop
  endfacet
  facet normal 0 0 1
    outer loop
      vertex 49.7596 1.27843 1.25
      vertex 49.7596 -1.27843 1.25
      vertex 50.0685 -0.672112 1.25
    endloop
  endfacet
  facet normal 0 0 1
    outer loop
      vertex 49.2784 1.75961 1.25
      vertex 49.7596 -1.27843 1.25
      vertex 49.7596 1.27843 1.25
    endloop
  endfacet
  facet normal 0 0 1
    outer loop
      vertex 49.2784 1.75961 1.25
      vertex 49.2784 -1.75961 1.25
      vertex 49.7596 -1.27843 1.25
    endloop
  endfacet
  facet normal 0 0 1
    outer loop
      vertex 48.6721 2.06855 1.25
      vertex 49.2784 -1.75961 1.25
      vertex 49.2784 1.75961 1.25
    endloop
  endfacet
  facet normal 0 0 1
    outer loop
      vertex 48.6721 2.06855 1.25
      vertex 48.6721 -2.06855 1.25
      vertex 49.2784 -1.75961 1.25
    endloop
  endfacet
  facet normal 0 0 1
    outer loop
      vertex 48 2.175 1.25
      vertex 48.6721 -2.06855 1.25
      vertex 48.6721 2.06855 1.25
    endloop
  endfacet
  facet normal 0 0 1
    outer loop
      vertex 48 2.175 1.25
      vertex 48 -2.175 1.25
      vertex 48.6721 -2.06855 1.25
    endloop
  endfacet
  facet normal -0 0 1
    outer loop
      vertex 47.3279 2.06855 1.25
      vertex 48 -2.175 1.25
      vertex 48 2.175 1.25
    endloop
  endfacet
  facet normal 0 0 1
    outer loop
      vertex 47.3279 2.06855 1.25
      vertex 47.3279 -2.06855 1.25
      vertex 48 -2.175 1.25
    endloop
  endfacet
  facet normal -0 0 1
    outer loop
      vertex 46.7216 1.75961 1.25
      vertex 47.3279 -2.06855 1.25
      vertex 47.3279 2.06855 1.25
    endloop
  endfacet
  facet normal 0 0 1
    outer loop
      vertex 46.7216 1.75961 1.25
      vertex 46.7216 -1.75961 1.25
      vertex 47.3279 -2.06855 1.25
    endloop
  endfacet
  facet normal -0 0 1
    outer loop
      vertex 46.2404 1.27843 1.25
      vertex 46.7216 -1.75961 1.25
      vertex 46.7216 1.75961 1.25
    endloop
  endfacet
  facet normal 0 0 1
    outer loop
      vertex 46.2404 1.27843 1.25
      vertex 46.2404 -1.27843 1.25
      vertex 46.7216 -1.75961 1.25
    endloop
  endfacet
  facet normal -0 0 1
    outer loop
      vertex 45.9314 0.672112 1.25
      vertex 46.2404 -1.27843 1.25
      vertex 46.2404 1.27843 1.25
    endloop
  endfacet
  facet normal 0 0 1
    outer loop
      vertex 45.9314 0.672112 1.25
      vertex 45.9314 -0.672112 1.25
      vertex 46.2404 -1.27843 1.25
    endloop
  endfacet
  facet normal 0 -0 1
    outer loop
      vertex 45.9314 -0.672112 1.25
      vertex 45.9314 0.672112 1.25
      vertex 45.825 0 1.25
    endloop
  endfacet
  facet normal 0.890968 0.454067 0
    outer loop
      vertex 46.2404 -1.27843 3
      vertex 45.9314 -0.672112 1.25
      vertex 45.9314 -0.672112 3
    endloop
  endfacet
  facet normal 0.890968 0.454067 0
    outer loop
      vertex 45.9314 -0.672112 1.25
      vertex 46.2404 -1.27843 3
      vertex 46.2404 -1.27843 1.25
    endloop
  endfacet
  facet normal 0.454008 0.890998 -0
    outer loop
      vertex 47.3279 -2.06855 1.25
      vertex 46.7216 -1.75961 3
      vertex 47.3279 -2.06855 3
    endloop
  endfacet
  facet normal 0.454008 0.890998 0
    outer loop
      vertex 46.7216 -1.75961 3
      vertex 47.3279 -2.06855 1.25
      vertex 46.7216 -1.75961 1.25
    endloop
  endfacet
  facet normal 0.707092 0.707121 0
    outer loop
      vertex 46.7216 -1.75961 3
      vertex 46.2404 -1.27843 1.25
      vertex 46.2404 -1.27843 3
    endloop
  endfacet
  facet normal 0.707092 0.707121 0
    outer loop
      vertex 46.2404 -1.27843 1.25
      vertex 46.7216 -1.75961 3
      vertex 46.7216 -1.75961 1.25
    endloop
  endfacet
  facet normal -0.454008 0.890998 0
    outer loop
      vertex 49.2784 -1.75961 1.25
      vertex 48.6721 -2.06855 3
      vertex 49.2784 -1.75961 3
    endloop
  endfacet
  facet normal -0.454008 0.890998 0
    outer loop
      vertex 48.6721 -2.06855 3
      vertex 49.2784 -1.75961 1.25
      vertex 48.6721 -2.06855 1.25
    endloop
  endfacet
  facet normal -0.707092 0.707121 0
    outer loop
      vertex 49.2784 -1.75961 1.25
      vertex 49.7596 -1.27843 3
      vertex 49.7596 -1.27843 1.25
    endloop
  endfacet
  facet normal -0.707092 0.707121 0
    outer loop
      vertex 49.7596 -1.27843 3
      vertex 49.2784 -1.75961 1.25
      vertex 49.2784 -1.75961 3
    endloop
  endfacet
  facet normal -0.707092 -0.707121 0
    outer loop
      vertex 49.7596 1.27843 1.25
      vertex 49.2784 1.75961 3
      vertex 49.2784 1.75961 1.25
    endloop
  endfacet
  facet normal -0.707092 -0.707121 0
    outer loop
      vertex 49.2784 1.75961 3
      vertex 49.7596 1.27843 1.25
      vertex 49.7596 1.27843 3
    endloop
  endfacet
  facet normal 0.707092 -0.707121 0
    outer loop
      vertex 46.2404 1.27843 3
      vertex 46.7216 1.75961 1.25
      vertex 46.7216 1.75961 3
    endloop
  endfacet
  facet normal 0.707092 -0.707121 0
    outer loop
      vertex 46.7216 1.75961 1.25
      vertex 46.2404 1.27843 3
      vertex 46.2404 1.27843 1.25
    endloop
  endfacet
  facet normal -0.156434 0.987688 0
    outer loop
      vertex 48.6721 -2.06855 1.25
      vertex 48 -2.175 3
      vertex 48.6721 -2.06855 3
    endloop
  endfacet
  facet normal -0.156434 0.987688 0
    outer loop
      vertex 48 -2.175 3
      vertex 48.6721 -2.06855 1.25
      vertex 48 -2.175 1.25
    endloop
  endfacet
  facet normal 0.156434 -0.987688 0
    outer loop
      vertex 47.3279 2.06855 1.25
      vertex 48 2.175 3
      vertex 47.3279 2.06855 3
    endloop
  endfacet
  facet normal 0.156434 -0.987688 0
    outer loop
      vertex 48 2.175 3
      vertex 47.3279 2.06855 1.25
      vertex 48 2.175 1.25
    endloop
  endfacet
  facet normal -0.156434 -0.987688 0
    outer loop
      vertex 48 2.175 1.25
      vertex 48.6721 2.06855 3
      vertex 48 2.175 3
    endloop
  endfacet
  facet normal -0.156434 -0.987688 -0
    outer loop
      vertex 48.6721 2.06855 3
      vertex 48 2.175 1.25
      vertex 48.6721 2.06855 1.25
    endloop
  endfacet
  facet normal -0.891027 -0.45395 0
    outer loop
      vertex 50.0685 0.672112 1.25
      vertex 49.7596 1.27843 3
      vertex 49.7596 1.27843 1.25
    endloop
  endfacet
  facet normal -0.891027 -0.45395 0
    outer loop
      vertex 49.7596 1.27843 3
      vertex 50.0685 0.672112 1.25
      vertex 50.0685 0.672112 3
    endloop
  endfacet
  facet normal -0.987683 0.156469 0
    outer loop
      vertex 62.0923 -0.679837 1.25
      vertex 62.2 0 3
      vertex 62.2 0 1.25
    endloop
  endfacet
  facet normal -0.987683 0.156469 0
    outer loop
      vertex 62.2 0 3
      vertex 62.0923 -0.679837 1.25
      vertex 62.0923 -0.679837 3
    endloop
  endfacet
  facet normal -0.987683 -0.156469 0
    outer loop
      vertex 62.2 0 1.25
      vertex 62.0923 0.679837 3
      vertex 62.0923 0.679837 1.25
    endloop
  endfacet
  facet normal -0.987683 -0.156469 0
    outer loop
      vertex 62.0923 0.679837 3
      vertex 62.2 0 1.25
      vertex 62.2 0 3
    endloop
  endfacet
  facet normal 0.987683 -0.156469 0
    outer loop
      vertex 57.8 0 3
      vertex 57.9077 0.679837 1.25
      vertex 57.9077 0.679837 3
    endloop
  endfacet
  facet normal 0.987683 -0.156469 0
    outer loop
      vertex 57.9077 0.679837 1.25
      vertex 57.8 0 3
      vertex 57.8 0 1.25
    endloop
  endfacet
  facet normal 0.891 -0.454004 0
    outer loop
      vertex 57.9077 0.679837 3
      vertex 58.2202 1.29313 1.25
      vertex 58.2202 1.29313 3
    endloop
  endfacet
  facet normal 0.891 -0.454004 0
    outer loop
      vertex 58.2202 1.29313 1.25
      vertex 57.9077 0.679837 3
      vertex 57.9077 0.679837 1.25
    endloop
  endfacet
  facet normal -0.453977 -0.891014 0
    outer loop
      vertex 60.6798 2.09232 1.25
      vertex 61.2931 1.77984 3
      vertex 60.6798 2.09232 3
    endloop
  endfacet
  facet normal -0.453977 -0.891014 -0
    outer loop
      vertex 61.2931 1.77984 3
      vertex 60.6798 2.09232 1.25
      vertex 61.2931 1.77984 1.25
    endloop
  endfacet
  facet normal 0.987683 0.156469 0
    outer loop
      vertex 57.9077 -0.679837 3
      vertex 57.8 0 1.25
      vertex 57.8 0 3
    endloop
  endfacet
  facet normal 0.987683 0.156469 0
    outer loop
      vertex 57.8 0 1.25
      vertex 57.9077 -0.679837 3
      vertex 57.9077 -0.679837 1.25
    endloop
  endfacet
  facet normal 0 0 1
    outer loop
      vertex 62.0923 0.679837 1.25
      vertex 62.0923 -0.679837 1.25
      vertex 62.2 0 1.25
    endloop
  endfacet
  facet normal 0 0 1
    outer loop
      vertex 61.7798 1.29313 1.25
      vertex 62.0923 -0.679837 1.25
      vertex 62.0923 0.679837 1.25
    endloop
  endfacet
  facet normal 0 0 1
    outer loop
      vertex 61.7798 1.29313 1.25
      vertex 61.7798 -1.29313 1.25
      vertex 62.0923 -0.679837 1.25
    endloop
  endfacet
  facet normal 0 0 1
    outer loop
      vertex 61.2931 1.77984 1.25
      vertex 61.7798 -1.29313 1.25
      vertex 61.7798 1.29313 1.25
    endloop
  endfacet
  facet normal 0 0 1
    outer loop
      vertex 61.2931 1.77984 1.25
      vertex 61.2931 -1.77984 1.25
      vertex 61.7798 -1.29313 1.25
    endloop
  endfacet
  facet normal 0 0 1
    outer loop
      vertex 60.6798 2.09232 1.25
      vertex 61.2931 -1.77984 1.25
      vertex 61.2931 1.77984 1.25
    endloop
  endfacet
  facet normal 0 0 1
    outer loop
      vertex 60.6798 2.09232 1.25
      vertex 60.6798 -2.09232 1.25
      vertex 61.2931 -1.77984 1.25
    endloop
  endfacet
  facet normal 0 0 1
    outer loop
      vertex 60 2.2 1.25
      vertex 60.6798 -2.09232 1.25
      vertex 60.6798 2.09232 1.25
    endloop
  endfacet
  facet normal 0 0 1
    outer loop
      vertex 60 2.2 1.25
      vertex 60 -2.2 1.25
      vertex 60.6798 -2.09232 1.25
    endloop
  endfacet
  facet normal -0 0 1
    outer loop
      vertex 59.3202 2.09232 1.25
      vertex 60 -2.2 1.25
      vertex 60 2.2 1.25
    endloop
  endfacet
  facet normal 0 0 1
    outer loop
      vertex 59.3202 2.09232 1.25
      vertex 59.3202 -2.09232 1.25
      vertex 60 -2.2 1.25
    endloop
  endfacet
  facet normal -0 0 1
    outer loop
      vertex 58.7069 1.77984 1.25
      vertex 59.3202 -2.09232 1.25
      vertex 59.3202 2.09232 1.25
    endloop
  endfacet
  facet normal 0 0 1
    outer loop
      vertex 58.7069 1.77984 1.25
      vertex 58.7069 -1.77984 1.25
      vertex 59.3202 -2.09232 1.25
    endloop
  endfacet
  facet normal -0 0 1
    outer loop
      vertex 58.2202 1.29313 1.25
      vertex 58.7069 -1.77984 1.25
      vertex 58.7069 1.77984 1.25
    endloop
  endfacet
  facet normal 0 0 1
    outer loop
      vertex 58.2202 1.29313 1.25
      vertex 58.2202 -1.29313 1.25
      vertex 58.7069 -1.77984 1.25
    endloop
  endfacet
  facet normal -0 0 1
    outer loop
      vertex 57.9077 0.679837 1.25
      vertex 58.2202 -1.29313 1.25
      vertex 58.2202 1.29313 1.25
    endloop
  endfacet
  facet normal 0 0 1
    outer loop
      vertex 57.9077 0.679837 1.25
      vertex 57.9077 -0.679837 1.25
      vertex 58.2202 -1.29313 1.25
    endloop
  endfacet
  facet normal 0 -0 1
    outer loop
      vertex 57.9077 -0.679837 1.25
      vertex 57.9077 0.679837 1.25
      vertex 57.8 0 1.25
    endloop
  endfacet
  facet normal 0.891 0.454004 0
    outer loop
      vertex 58.2202 -1.29313 3
      vertex 57.9077 -0.679837 1.25
      vertex 57.9077 -0.679837 3
    endloop
  endfacet
  facet normal 0.891 0.454004 0
    outer loop
      vertex 57.9077 -0.679837 1.25
      vertex 58.2202 -1.29313 3
      vertex 58.2202 -1.29313 1.25
    endloop
  endfacet
  facet normal 0.453977 0.891014 -0
    outer loop
      vertex 59.3202 -2.09232 1.25
      vertex 58.7069 -1.77984 3
      vertex 59.3202 -2.09232 3
    endloop
  endfacet
  facet normal 0.453977 0.891014 0
    outer loop
      vertex 58.7069 -1.77984 3
      vertex 59.3202 -2.09232 1.25
      vertex 58.7069 -1.77984 1.25
    endloop
  endfacet
  facet normal 0.707114 0.7071 0
    outer loop
      vertex 58.7069 -1.77984 3
      vertex 58.2202 -1.29313 1.25
      vertex 58.2202 -1.29313 3
    endloop
  endfacet
  facet normal 0.707114 0.7071 0
    outer loop
      vertex 58.2202 -1.29313 1.25
      vertex 58.7069 -1.77984 3
      vertex 58.7069 -1.77984 1.25
    endloop
  endfacet
  facet normal 0.156449 0.987686 -0
    outer loop
      vertex 60 -2.2 1.25
      vertex 59.3202 -2.09232 3
      vertex 60 -2.2 3
    endloop
  endfacet
  facet normal 0.156449 0.987686 0
    outer loop
      vertex 59.3202 -2.09232 3
      vertex 60 -2.2 1.25
      vertex 59.3202 -2.09232 1.25
    endloop
  endfacet
  facet normal -0.156449 0.987686 0
    outer loop
      vertex 60.6798 -2.09232 1.25
      vertex 60 -2.2 3
      vertex 60.6798 -2.09232 3
    endloop
  endfacet
  facet normal -0.156449 0.987686 0
    outer loop
      vertex 60 -2.2 3
      vertex 60.6798 -2.09232 1.25
      vertex 60 -2.2 1.25
    endloop
  endfacet
  facet normal -0.453977 0.891014 0
    outer loop
      vertex 61.2931 -1.77984 1.25
      vertex 60.6798 -2.09232 3
      vertex 61.2931 -1.77984 3
    endloop
  endfacet
  facet normal -0.453977 0.891014 0
    outer loop
      vertex 60.6798 -2.09232 3
      vertex 61.2931 -1.77984 1.25
      vertex 60.6798 -2.09232 1.25
    endloop
  endfacet
  facet normal -0.707114 0.7071 0
    outer loop
      vertex 61.2931 -1.77984 1.25
      vertex 61.7798 -1.29313 3
      vertex 61.7798 -1.29313 1.25
    endloop
  endfacet
  facet normal -0.707114 0.7071 0
    outer loop
      vertex 61.7798 -1.29313 3
      vertex 61.2931 -1.77984 1.25
      vertex 61.2931 -1.77984 3
    endloop
  endfacet
  facet normal -0.891 0.454004 0
    outer loop
      vertex 61.7798 -1.29313 1.25
      vertex 62.0923 -0.679837 3
      vertex 62.0923 -0.679837 1.25
    endloop
  endfacet
  facet normal -0.891 0.454004 0
    outer loop
      vertex 62.0923 -0.679837 3
      vertex 61.7798 -1.29313 1.25
      vertex 61.7798 -1.29313 3
    endloop
  endfacet
  facet normal 0.156449 -0.987686 0
    outer loop
      vertex 59.3202 2.09232 1.25
      vertex 60 2.2 3
      vertex 59.3202 2.09232 3
    endloop
  endfacet
  facet normal 0.156449 -0.987686 0
    outer loop
      vertex 60 2.2 3
      vertex 59.3202 2.09232 1.25
      vertex 60 2.2 1.25
    endloop
  endfacet
  facet normal 0.453977 -0.891014 0
    outer loop
      vertex 58.7069 1.77984 1.25
      vertex 59.3202 2.09232 3
      vertex 58.7069 1.77984 3
    endloop
  endfacet
  facet normal 0.453977 -0.891014 0
    outer loop
      vertex 59.3202 2.09232 3
      vertex 58.7069 1.77984 1.25
      vertex 59.3202 2.09232 1.25
    endloop
  endfacet
  facet normal 0.707114 -0.7071 0
    outer loop
      vertex 58.2202 1.29313 3
      vertex 58.7069 1.77984 1.25
      vertex 58.7069 1.77984 3
    endloop
  endfacet
  facet normal 0.707114 -0.7071 0
    outer loop
      vertex 58.7069 1.77984 1.25
      vertex 58.2202 1.29313 3
      vertex 58.2202 1.29313 1.25
    endloop
  endfacet
  facet normal -0.156449 -0.987686 0
    outer loop
      vertex 60 2.2 1.25
      vertex 60.6798 2.09232 3
      vertex 60 2.2 3
    endloop
  endfacet
  facet normal -0.156449 -0.987686 -0
    outer loop
      vertex 60.6798 2.09232 3
      vertex 60 2.2 1.25
      vertex 60.6798 2.09232 1.25
    endloop
  endfacet
  facet normal -0.891 -0.454004 0
    outer loop
      vertex 62.0923 0.679837 1.25
      vertex 61.7798 1.29313 3
      vertex 61.7798 1.29313 1.25
    endloop
  endfacet
  facet normal -0.891 -0.454004 0
    outer loop
      vertex 61.7798 1.29313 3
      vertex 62.0923 0.679837 1.25
      vertex 62.0923 0.679837 3
    endloop
  endfacet
  facet normal -0.707114 -0.7071 0
    outer loop
      vertex 61.7798 1.29313 1.25
      vertex 61.2931 1.77984 3
      vertex 61.2931 1.77984 1.25
    endloop
  endfacet
  facet normal -0.707114 -0.7071 0
    outer loop
      vertex 61.2931 1.77984 3
      vertex 61.7798 1.29313 1.25
      vertex 61.7798 1.29313 3
    endloop
  endfacet
endsolid OpenSCAD_Model
